<?xml version="1.0" standalone="no"?>
<!DOCTYPE svg PUBLIC "-//W3C//DTD SVG 20010904//EN"
 "http://www.w3.org/TR/2001/REC-SVG-20010904/DTD/svg10.dtd">
<svg version="1.0" xmlns="http://www.w3.org/2000/svg"
 width="512.000000pt" height="512.000000pt" viewBox="0 0 512.000000 512.000000"
 preserveAspectRatio="xMidYMid meet">

<g transform="translate(0.000000,512.000000) scale(0.100000,-0.100000)"
fill="#000000" stroke="none">
<path d="M0 2560 l0 -2560 2108 1 c1159 1 2099 3 2089 6 -9 2 -15 8 -12 12 2
5 -7 14 -20 21 -14 7 -25 20 -25 27 0 7 -7 16 -15 19 -8 4 -15 13 -15 21 0 10
-6 12 -21 8 -15 -5 -19 -4 -15 4 6 10 -29 17 -58 12 -5 -1 -6 7 -3 19 3 13 1
18 -6 13 -18 -11 -50 -4 -64 14 -10 13 -15 13 -27 4 -11 -9 -16 -9 -22 0 -4 7
-3 9 4 5 19 -12 26 17 7 31 -17 11 -17 13 -2 13 10 0 14 5 11 15 -4 11 -11 12
-24 5 -14 -7 -20 -4 -30 18 -8 15 -13 30 -12 35 1 4 -7 7 -19 7 -11 0 -18 4
-15 9 4 5 -3 7 -15 4 -13 -4 -17 -8 -9 -13 7 -4 -2 -10 -21 -14 l-32 -6 23
-20 c13 -11 18 -20 12 -20 -6 0 -14 4 -17 10 -3 5 -14 10 -25 10 -10 0 -20 7
-24 15 -3 8 -14 15 -25 15 -15 0 -19 5 -14 16 5 13 8 13 15 2 8 -11 9 -10 6 1
-2 8 -14 16 -27 18 -12 2 -20 -1 -16 -6 3 -5 1 -13 -5 -16 -6 -4 -9 -1 -8 6 2
7 -1 13 -7 14 -17 1 -36 16 -34 28 1 7 -1 20 -6 30 -6 14 -10 16 -16 6 -6 -10
-12 -9 -26 6 -21 23 -49 33 -36 13 4 -7 9 -24 10 -38 3 -20 1 -22 -7 -10 -6
10 -10 11 -10 3 0 -7 -6 -13 -14 -13 -10 0 -13 -7 -11 -20 3 -15 -1 -20 -13
-18 -9 2 -17 -2 -17 -9 0 -18 -15 -28 -15 -10 0 8 -6 18 -12 21 -7 3 -6 4 4 3
9 -1 17 2 16 7 0 5 6 13 14 17 10 7 8 9 -7 10 l-20 0 20 9 c14 6 16 9 5 11 -8
1 -26 3 -40 6 -14 2 -33 5 -42 6 -24 2 -30 35 -8 42 25 8 19 30 -15 59 -24 21
-55 26 -55 9 0 -3 7 -2 16 1 12 5 15 2 10 -10 -3 -8 -6 -18 -6 -20 0 -3 -4 -2
-10 1 -5 3 -7 0 -4 -8 3 -8 1 -18 -5 -22 -6 -3 -11 0 -11 8 0 8 -9 17 -20 20
-13 3 -18 1 -14 -6 4 -7 -1 -4 -12 5 -18 17 -18 18 1 34 18 15 18 15 -7 0 -24
-14 -27 -14 -22 -1 4 8 1 15 -6 15 -6 0 -8 5 -5 10 10 16 -12 12 -29 -5 -8 -8
-21 -15 -28 -15 -8 0 -20 -6 -27 -13 -10 -10 -11 -8 -5 7 6 15 4 17 -6 11 -9
-5 -11 -4 -6 4 14 21 13 56 -1 69 -8 8 -13 9 -13 2 0 -5 -4 -10 -9 -10 -4 0
-6 11 -3 25 3 18 0 25 -12 25 -9 0 -25 9 -36 20 -12 12 -26 17 -37 13 -12 -5
-15 -2 -11 8 4 10 -1 15 -12 15 -10 0 -16 -5 -13 -11 4 -5 -3 -2 -14 7 -11 10
-25 18 -31 18 -7 0 -11 6 -9 13 1 6 -6 11 -15 11 -9 -1 -14 4 -12 10 2 6 -4
12 -15 12 -11 0 -17 -4 -15 -8 3 -4 -4 -8 -16 -8 -13 0 -19 4 -14 11 4 7 -1 7
-16 -1 -18 -10 -20 -14 -9 -21 11 -7 12 -9 1 -9 -8 0 -16 9 -19 20 -3 11 -9
20 -14 20 -5 0 -9 5 -9 11 0 5 5 7 10 4 16 -10 11 8 -10 34 -14 16 -27 22 -43
18 -20 -6 -21 -5 -4 7 17 13 16 14 -3 19 -11 3 -20 12 -20 21 0 10 -8 16 -21
16 -12 0 -19 5 -16 13 2 6 -4 24 -15 39 -10 15 -14 29 -9 32 5 4 12 0 14 -6 3
-8 6 -6 6 5 1 9 -4 17 -10 17 -5 0 -7 5 -4 10 3 6 -1 13 -9 16 -9 3 -16 10
-16 16 0 5 6 6 13 2 8 -5 7 -2 -2 9 -8 10 -16 15 -19 12 -9 -9 -32 17 -32 37
0 12 -5 17 -12 13 -7 -4 -4 1 7 10 20 17 20 17 -2 10 -18 -5 -22 -3 -17 9 3 9
15 16 26 16 19 0 19 1 -3 21 -13 11 -18 18 -11 14 12 -6 16 6 13 34 -2 7 2 10
8 6 6 -3 11 0 11 9 0 8 4 16 9 18 4 2 5 12 1 23 -8 19 -8 19 -18 -5 -8 -18
-11 -20 -11 -8 -1 10 8 23 19 30 25 16 26 31 1 23 -13 -4 -20 0 -24 16 -8 29
2 49 24 49 10 0 23 8 28 18 8 13 10 14 11 2 0 -9 3 -11 8 -5 6 9 48 26 102 42
13 4 13 4 0 -6 -9 -7 -10 -11 -3 -11 6 0 14 4 18 10 3 5 12 7 20 3 9 -3 21 0
29 6 7 6 17 7 21 3 5 -4 5 -2 2 4 -10 17 21 40 35 26 6 -6 17 -8 26 -4 12 4
14 1 9 -13 -6 -15 -5 -16 8 -5 8 7 15 8 15 2 0 -5 6 -10 13 -9 33 1 47 -4 47
-19 0 -8 4 -13 9 -10 5 4 12 0 14 -6 3 -8 6 -9 6 -2 1 7 14 10 31 8 19 -2 30
1 30 9 0 8 3 7 9 -2 11 -17 51 -25 51 -11 0 12 71 -16 81 -31 4 -7 8 -5 12 5
8 21 54 49 68 41 8 -6 7 -10 -2 -16 -10 -6 -10 -9 -2 -9 6 0 15 5 18 10 3 6
11 10 17 10 6 0 3 -10 -8 -22 -10 -13 -12 -17 -4 -11 16 15 34 17 26 5 -3 -5
1 -9 9 -9 17 0 20 13 5 22 -5 3 -10 12 -9 18 0 9 2 9 6 0 2 -7 9 -13 15 -13 6
0 8 7 4 15 -3 8 -1 15 4 15 5 0 10 -11 12 -25 3 -29 23 -34 22 -5 0 10 2 19 5
18 19 -2 31 3 31 13 0 5 -4 8 -8 5 -5 -3 -15 6 -22 19 -7 14 -17 25 -22 25 -4
0 -8 6 -8 14 0 8 -5 18 -12 22 -6 4 -8 3 -4 -4 3 -6 2 -13 -4 -17 -6 -4 -10 5
-10 19 0 16 -8 30 -21 37 -14 7 -19 7 -15 0 4 -5 4 -22 0 -35 -5 -22 -10 -25
-33 -20 -21 5 -23 3 -11 -6 13 -10 13 -11 0 -7 -10 2 -14 13 -12 31 3 24 1 26
-22 22 -14 -3 -29 0 -32 6 -4 7 -2 8 4 4 7 -4 12 -3 12 3 0 19 -19 21 -29 4
-6 -10 -11 -13 -11 -5 0 8 -9 11 -24 8 -21 -4 -23 -2 -17 27 5 23 13 33 29 35
13 2 26 10 28 17 3 8 13 11 22 7 14 -5 14 -3 -2 13 -22 22 -55 26 -74 8 -7 -7
-19 -13 -25 -13 -8 0 -7 3 2 9 7 5 9 11 5 13 -5 3 -3 3 4 2 6 -2 12 0 12 5 0
5 22 7 49 6 34 -1 52 2 55 11 3 7 1 14 -3 16 -5 2 1 12 12 23 19 20 19 20 13
-5 -5 -21 -4 -21 8 4 9 20 15 25 19 15 4 -10 6 -9 6 4 1 15 4 16 23 6 18 -10
20 -9 15 4 -4 11 -2 14 8 10 8 -3 12 -10 8 -17 -4 -6 2 -4 12 4 11 9 16 10 11
3 -4 -7 -2 -13 3 -13 6 0 11 -4 11 -10 0 -5 -8 -7 -17 -4 -15 5 -15 4 -3 -4 8
-6 18 -8 22 -6 4 3 8 -3 9 -13 0 -16 1 -16 9 2 5 11 9 15 9 9 1 -16 52 -35 79
-29 18 3 22 0 18 -10 -3 -8 -1 -17 5 -20 5 -4 8 -1 7 7 -2 7 6 13 17 14 29 1
39 -7 24 -18 -11 -8 -11 -9 1 -5 8 2 14 11 12 18 -2 10 1 9 10 -2 7 -9 21 -15
31 -13 14 2 16 0 7 -11 -10 -12 -8 -13 10 -10 15 3 20 0 17 -9 -3 -7 1 -13 8
-13 7 0 11 6 8 14 -3 7 -1 13 5 13 16 0 34 -28 26 -42 -4 -7 -4 -10 1 -6 4 4
14 0 22 -8 9 -8 18 -12 21 -9 3 3 -3 11 -13 19 -17 12 -17 13 4 19 12 3 21 0
21 -6 0 -7 8 -21 17 -32 14 -18 15 -18 9 -2 -4 13 -2 17 6 14 7 -2 18 3 25 12
9 13 17 14 42 5 24 -10 31 -9 35 3 3 8 11 11 16 8 8 -5 7 -11 -1 -21 -8 -10
-8 -14 0 -14 6 0 11 5 11 10 0 6 12 8 26 6 20 -4 24 -2 20 10 -3 8 -2 12 3 9
5 -3 12 -1 16 5 3 5 14 10 23 10 14 -1 13 -4 -5 -19 -27 -23 -30 -33 -6 -24 9
4 14 2 10 -3 -3 -6 4 -11 15 -11 20 -2 20 -1 2 12 -11 9 -14 14 -6 15 7 0 12
11 10 28 -1 15 4 38 11 51 l13 24 17 -22 c16 -21 17 -21 33 -2 13 15 23 18 45
12 15 -5 27 -14 25 -20 -1 -7 2 -10 8 -6 6 4 5 12 -2 25 -7 10 -16 16 -22 13
-5 -3 -6 -1 -2 6 5 8 17 1 39 -21 17 -18 30 -37 29 -41 -1 -4 7 -3 19 3 11 7
23 9 26 6 4 -3 13 0 21 7 13 9 14 9 8 -1 -4 -7 -2 -12 7 -12 8 0 22 -9 32 -20
10 -11 21 -18 24 -15 4 2 12 -5 19 -15 10 -16 9 -18 -6 -14 -14 5 -14 3 2 -10
11 -9 24 -16 29 -16 5 0 6 -7 3 -16 -3 -9 -2 -12 5 -9 6 4 8 -3 4 -22 -5 -21
-4 -24 4 -13 9 13 11 13 11 -2 0 -10 10 -28 22 -40 15 -15 17 -20 5 -15 -9 3
-19 2 -22 -2 -3 -5 3 -12 12 -15 14 -6 15 -9 4 -15 -11 -7 -9 -10 6 -15 11 -4
29 -16 39 -28 11 -12 13 -18 5 -13 -11 6 -13 4 -6 -11 4 -10 8 -31 8 -46 0
-16 4 -28 9 -28 5 0 6 -11 2 -24 -4 -16 -1 -25 11 -30 11 -4 15 -13 12 -25 -3
-13 1 -18 16 -17 11 1 22 -6 24 -14 4 -12 3 -12 -5 -1 -7 10 -11 10 -17 1 -4
-7 1 -13 14 -17 26 -7 27 -21 4 -39 -16 -12 -15 -13 7 -4 14 6 33 13 43 16 9
4 17 14 17 23 0 12 -2 13 -9 3 -6 -10 -10 -9 -14 7 -3 12 0 24 5 28 7 3 8 1 4
-5 -4 -7 -3 -12 3 -12 12 0 36 40 24 40 -4 0 -1 5 7 10 8 5 10 10 4 10 -7 0
-14 9 -17 20 -4 16 0 20 16 19 12 0 16 -3 9 -6 -9 -3 -4 -13 15 -30 15 -14 21
-22 13 -17 -13 7 -13 5 -1 -9 14 -18 26 -23 17 -8 -6 10 24 25 32 16 3 -3 2
-5 -2 -5 -4 0 -2 -9 5 -21 7 -14 17 -19 30 -16 16 4 17 2 8 -14 -8 -15 -6 -19
6 -19 15 0 15 -1 0 -16 -15 -15 -15 -18 2 -37 10 -11 12 -17 6 -13 -9 5 -11 2
-7 -8 3 -8 12 -17 20 -20 9 -3 12 -1 9 4 -3 6 -3 15 1 22 5 8 10 6 15 -8 7
-17 8 -17 8 4 1 13 5 21 11 17 6 -4 6 -15 -1 -32 -8 -21 -7 -24 4 -15 15 13
42 0 42 -20 0 -7 6 -14 13 -14 36 -4 37 -4 22 -14 -12 -8 -12 -10 5 -11 11 0
14 -3 8 -6 -7 -2 -13 -9 -13 -14 0 -6 4 -8 8 -5 4 2 6 -29 4 -71 -2 -49 2 -80
10 -90 9 -12 9 -16 -3 -24 -11 -7 -10 -9 5 -9 11 0 16 -5 13 -13 -3 -8 4 -14
16 -15 12 0 17 2 11 6 -25 16 -26 72 -2 72 6 0 5 -7 -3 -16 -10 -13 -10 -17 1
-24 8 -5 13 -26 13 -52 0 -23 5 -50 11 -58 7 -8 12 -22 11 -30 0 -8 2 -17 6
-20 3 -3 9 -18 13 -35 4 -19 3 -25 -2 -17 -8 11 -10 11 -15 -1 -6 -15 9 -17
30 -4 6 4 14 3 18 -3 3 -5 2 -10 -4 -10 -5 0 0 -18 10 -40 11 -22 26 -40 34
-40 13 0 15 231 15 1820 0 1214 -3 1820 -10 1820 -5 0 -10 8 -10 18 -1 15 -3
14 -19 -5 -18 -22 -19 -22 -27 -2 -9 20 -9 20 -31 0 l-22 -21 -6 21 c-4 11
-13 18 -20 16 -9 -4 -11 8 -8 51 3 31 5 59 6 62 1 3 -5 16 -12 30 -14 25 -14
25 7 7 22 -20 42 -15 42 10 0 15 2 14 18 0 10 -10 28 -17 40 -17 11 0 28 -7
36 -16 15 -14 16 25 16 425 l0 441 -1069 0 c-588 0 -1076 -3 -1085 -6 -9 -3
-16 -12 -16 -19 0 -8 -10 -12 -26 -10 -18 2 -28 -4 -34 -19 -9 -20 -9 -20 -9
3 -1 15 -6 21 -15 18 -10 -4 -12 1 -9 16 3 16 2 18 -5 8 -7 -9 -12 -10 -16 -2
-11 17 -141 14 -159 -4 -8 -8 -18 -11 -23 -7 -5 4 0 -3 10 -15 15 -18 23 -20
37 -12 13 6 19 6 19 -1 0 -5 8 -10 18 -10 17 0 48 -25 52 -42 8 -36 14 -48 24
-48 6 0 0 -6 -14 -13 -14 -7 -25 -19 -25 -27 0 -8 -9 -21 -20 -28 -13 -9 -15
-12 -3 -8 9 2 24 -2 35 -9 16 -13 12 -14 -35 -12 -38 1 -51 6 -47 15 3 7 1 10
-4 7 -6 -3 -9 -19 -9 -35 1 -16 -4 -36 -11 -43 -9 -12 -8 -16 4 -21 9 -3 13
-2 10 4 -3 6 -1 10 4 10 6 0 12 -4 12 -10 3 -20 4 -25 13 -39 7 -10 4 -12 -13
-6 -14 4 -23 1 -27 -9 -3 -9 -10 -16 -16 -16 -5 0 -7 4 -4 9 3 4 -10 1 -29 -7
-38 -17 -48 -38 -14 -29 12 3 22 0 26 -9 3 -8 11 -13 18 -10 8 3 15 -1 18 -8
3 -8 -8 -12 -39 -11 -25 1 -47 -2 -50 -6 -3 -5 1 -6 8 -4 8 3 29 -6 48 -20 30
-22 32 -30 7 -26 -5 1 0 -9 10 -23 l18 -24 12 21 c7 12 12 16 13 9 0 -7 5 -10
10 -7 6 4 17 1 25 -5 12 -10 15 -10 15 0 0 10 3 10 15 0 19 -16 32 -6 17 13
-9 10 -4 13 21 12 18 0 38 4 45 9 7 5 12 4 12 -3 0 -6 4 -11 10 -11 5 0 7 7 4
15 -4 11 -2 13 9 9 8 -3 18 0 22 6 4 6 1 11 -6 9 -35 -4 -43 2 -19 15 14 8 29
12 34 9 5 -4 6 -1 2 6 -5 7 0 22 11 34 12 14 13 18 2 9 -9 -6 -19 -9 -22 -5
-13 13 -7 23 16 23 14 0 26 10 34 26 11 25 11 25 -5 12 -9 -9 -27 -18 -39 -20
-19 -5 -21 -2 -17 25 2 17 9 35 15 41 9 8 10 8 5 -1 -8 -14 3 -43 16 -43 5 0
6 5 3 10 -4 6 -1 9 7 8 8 -2 13 6 12 20 -1 29 4 28 16 -4 l10 -25 22 23 c13
13 17 17 11 8 -21 -27 -15 -31 10 -7 22 20 23 24 9 47 l-15 25 25 -23 c23 -21
65 -22 52 -1 -3 5 3 6 12 2 14 -5 16 -3 11 12 -6 15 -5 16 8 5 8 -7 12 -17 8
-23 -4 -6 0 -8 10 -4 11 4 17 1 17 -8 0 -9 6 -12 15 -9 8 4 22 1 30 -6 12 -10
22 -10 43 -2 27 12 27 12 5 -4 -18 -13 -20 -20 -13 -35 6 -10 11 -29 12 -43 1
-15 8 -26 15 -26 7 0 10 -7 6 -17 -4 -10 -2 -14 4 -10 6 4 16 0 23 -8 11 -13
10 -14 -4 -9 -20 8 -20 4 -2 -32 8 -15 12 -32 9 -38 -4 -6 2 -4 12 4 17 14 18
14 7 -5 -8 -16 -7 -24 6 -39 9 -11 12 -16 5 -13 -6 4 -15 2 -19 -4 -5 -8 1
-10 19 -7 19 4 24 1 19 -10 -3 -10 -1 -13 6 -8 7 4 12 1 12 -8 0 -9 7 -13 19
-11 12 2 18 -2 17 -13 0 -9 4 -16 11 -15 7 2 10 -4 7 -12 -4 -10 0 -15 11 -15
12 0 15 5 11 17 -6 15 -5 15 13 -1 11 -10 18 -23 14 -29 -4 -6 0 -8 10 -4 10
3 17 2 17 -4 0 -6 6 -6 18 0 11 6 24 6 35 0 12 -7 17 -6 17 1 0 6 5 8 10 5 6
-4 8 -11 5 -16 -4 -5 3 -9 15 -9 12 0 18 5 15 10 -3 6 -1 10 4 10 10 0 15 -13
12 -32 0 -4 8 -5 19 -3 11 2 20 -1 20 -7 0 -7 5 -7 14 1 9 8 21 8 39 2 22 -9
24 -7 20 12 -3 14 -2 18 4 10 4 -6 21 -15 36 -18 15 -4 33 -16 41 -26 7 -10
16 -16 19 -12 4 3 7 1 7 -5 0 -7 7 -12 15 -12 8 0 15 -4 15 -10 0 -11 32 -1
41 13 4 6 14 5 25 -3 18 -11 18 -11 -1 -5 -16 5 -18 4 -7 -6 9 -10 15 -10 24
-1 9 9 16 8 32 -6 11 -9 16 -11 12 -4 -4 6 -2 12 3 12 6 0 11 -6 11 -14 0 -13
39 -30 49 -21 2 3 -1 5 -8 5 -7 0 -10 4 -6 10 3 5 15 0 26 -11 11 -11 24 -17
29 -14 6 4 10 -2 11 -12 0 -10 3 -13 6 -5 2 6 8 12 13 12 9 0 8 -19 -3 -37 -4
-7 3 -20 18 -31 13 -11 22 -22 20 -24 -3 -3 1 -21 9 -40 9 -20 12 -38 9 -42
-4 -3 1 -6 10 -6 10 0 17 -5 17 -11 0 -5 4 -8 9 -5 5 4 7 -3 4 -14 -4 -16 -2
-19 12 -13 13 4 16 3 11 -5 -4 -7 -2 -12 3 -12 6 0 11 5 11 12 0 6 3 8 6 5 4
-4 1 -14 -7 -24 -8 -9 -9 -14 -3 -10 7 4 15 0 18 -8 4 -11 11 -13 23 -7 10 4
34 7 53 6 19 -1 40 2 47 8 7 6 19 8 27 5 7 -3 19 0 26 6 10 9 11 9 6 0 -4 -8
-1 -13 8 -13 9 0 25 -9 37 -21 12 -12 32 -22 45 -24 28 -3 72 -46 66 -65 -3
-7 -1 -10 4 -7 18 10 13 -56 -6 -96 -11 -22 -20 -47 -20 -55 0 -8 -13 -27 -29
-43 -16 -15 -27 -30 -24 -32 2 -3 -5 -11 -17 -17 -18 -9 -21 -9 -15 0 10 16
-16 32 -31 19 -7 -6 -16 -4 -24 6 -7 8 -16 12 -21 9 -5 -3 -6 2 -3 10 3 9 1
16 -4 16 -6 0 -9 9 -7 19 3 15 -1 18 -12 14 -10 -4 -14 -2 -10 4 4 6 -4 13
-17 17 -26 6 -41 32 -25 41 5 4 8 1 7 -6 -2 -6 4 -14 12 -16 12 -4 12 -3 2 5
-8 5 -12 13 -10 17 1 5 -10 12 -26 16 -22 6 -26 5 -18 -3 14 -14 15 -28 3 -28
-16 0 -42 31 -35 42 4 6 -2 5 -15 -1 -24 -13 -41 -7 -41 15 0 8 -4 14 -10 14
-5 0 -10 7 -10 15 0 8 4 15 10 15 5 0 7 7 4 15 -4 8 -11 12 -17 8 -6 -4 -8 0
-4 11 4 10 3 15 -4 11 -6 -4 -8 2 -4 18 7 26 -9 45 -21 26 -4 -8 -3 -9 4 -5 7
4 12 0 12 -10 0 -10 -3 -15 -6 -12 -3 4 -18 2 -34 -2 -20 -6 -30 -5 -33 3 -3
7 -10 0 -16 -15 -6 -16 -17 -28 -26 -28 -8 0 -20 -9 -27 -20 -7 -11 -18 -20
-24 -20 -7 0 -14 -7 -18 -15 -7 -18 -37 -20 -55 -2 -11 10 -13 10 -7 0 10 -18
-10 -16 -28 3 -9 8 -16 11 -16 5 0 -6 -7 -8 -15 -5 -18 7 -20 -7 -3 -24 7 -7
8 -12 2 -12 -6 0 -16 10 -22 23 -8 16 -11 17 -11 6 -1 -9 -9 -23 -18 -30 -14
-12 -16 -12 -9 1 4 8 0 6 -9 -5 -9 -11 -21 -20 -27 -20 -6 0 -14 -9 -19 -20
-7 -18 -8 -18 -8 -2 -1 17 -3 17 -31 -3 -16 -12 -30 -30 -30 -40 0 -24 -26
-33 -45 -14 -13 14 -18 12 -17 -6 0 -3 -11 -6 -24 -6 -13 -1 -24 3 -24 10 0 6
-5 4 -10 -4 -13 -20 -12 -39 1 -20 9 13 10 13 7 0 -3 -8 -15 -17 -29 -20 -20
-5 -24 -12 -25 -48 -2 -40 11 -54 50 -57 5 0 11 -7 13 -15 4 -13 3 -13 -7 0
-10 13 -11 13 -7 0 2 -9 16 -15 33 -15 16 0 40 -7 53 -14 21 -12 23 -11 18 3
-4 9 -2 16 3 16 6 0 10 -6 10 -14 0 -8 5 -18 10 -21 6 -4 9 -2 8 3 -2 6 2 10
7 10 6 1 9 -5 7 -13 -1 -7 3 -17 10 -21 7 -4 10 -4 6 1 -4 4 0 14 10 21 9 7
12 14 6 14 -6 0 -11 6 -11 13 0 15 35 16 56 3 11 -7 13 -5 7 9 -6 16 -4 16 10
4 16 -13 16 -12 5 8 -11 21 -10 23 11 19 15 -2 29 4 41 18 12 14 17 16 16 6
-3 -32 1 -51 11 -45 6 4 8 15 5 26 -5 15 -3 18 12 13 16 -6 16 -5 -1 8 -24 19
-15 34 23 40 20 3 32 0 36 -9 3 -10 -1 -13 -15 -8 -11 4 -20 2 -20 -3 0 -5 10
-9 23 -8 12 1 27 -5 33 -13 8 -10 13 -11 18 -3 4 7 3 12 -2 12 -6 0 -13 8 -16
17 -6 15 -5 15 13 -1 11 -10 17 -24 15 -31 -3 -7 -1 -23 6 -34 8 -16 8 -21 -2
-21 -8 -1 -5 -7 7 -17 19 -15 19 -15 -9 -9 -24 6 -28 4 -22 -10 5 -13 4 -14
-7 -6 -8 7 -17 10 -21 7 -3 -3 -2 1 4 7 19 23 12 41 -14 34 -15 -4 -26 -1 -29
7 -4 9 -6 9 -6 -1 -1 -7 -5 -10 -11 -7 -5 3 -10 1 -10 -5 0 -7 6 -10 14 -7 17
7 40 -17 34 -35 -5 -17 39 -61 45 -45 2 7 7 10 10 7 10 -10 -9 -31 -30 -33
-11 0 -20 -7 -20 -13 0 -7 3 -13 6 -12 3 0 15 0 26 -1 15 -1 17 -3 6 -10 -11
-7 -10 -11 6 -20 11 -5 23 -7 27 -4 3 3 6 1 6 -6 0 -8 -7 -10 -20 -6 -13 4
-20 2 -20 -6 0 -7 3 -9 7 -6 3 4 12 -1 20 -11 8 -9 12 -11 8 -4 -3 6 0 15 9
18 9 3 12 12 9 22 -7 18 -5 17 17 -12 10 -13 10 -17 3 -12 -7 4 -13 2 -13 -3
0 -6 9 -11 19 -11 11 0 23 -5 27 -11 4 -8 -1 -9 -17 -4 l-24 7 24 -21 c29 -26
32 -72 6 -101 -13 -14 -14 -20 -5 -20 8 0 3 -11 -13 -28 -18 -19 -23 -32 -17
-42 5 -8 6 -18 4 -22 -3 -4 0 -8 6 -8 7 0 9 -7 6 -17 -4 -9 -1 -20 6 -25 10
-6 9 -8 -4 -8 -9 0 -18 4 -20 8 -1 4 -11 0 -20 -10 -17 -17 -17 -18 1 -18 10
0 21 -7 25 -15 7 -18 -12 -75 -26 -75 -5 0 -6 -5 -3 -11 4 -6 14 -8 24 -5 14
5 14 4 1 -7 -23 -18 -23 -37 0 -37 11 0 20 -5 20 -11 0 -6 7 -3 16 5 14 14 18
13 40 -12 24 -25 25 -26 21 -5 -4 19 -2 21 12 13 12 -6 22 -5 31 3 10 10 12 8
7 -5 -4 -11 -2 -17 5 -15 7 1 13 -16 16 -45 3 -39 0 -47 -17 -53 -13 -4 -18
-11 -14 -22 5 -12 3 -14 -7 -8 -10 6 -12 4 -8 -7 4 -9 -5 -24 -23 -39 -31 -25
-44 -27 -44 -7 0 7 -8 14 -19 16 -13 3 -16 0 -10 -10 9 -14 -25 9 -38 27 -5 6
-5 -5 -2 -22 5 -26 3 -33 -9 -33 -21 0 -31 -17 -16 -26 7 -4 9 -3 5 4 -4 6 1
10 12 9 17 -1 17 -4 5 -27 -15 -30 -17 -64 -3 -55 6 4 8 10 5 15 -3 4 2 11 11
14 25 9 27 7 10 -10 -9 -8 -14 -20 -11 -25 4 -5 1 -9 -5 -9 -6 0 -9 -4 -6 -9
4 -5 0 -12 -6 -14 -8 -3 -6 -6 5 -6 9 -1 17 -6 17 -12 0 -5 -4 -7 -10 -4 -5 3
-10 0 -10 -7 0 -9 -3 -9 -10 2 -5 8 -10 10 -10 4 0 -6 6 -17 14 -23 8 -7 13
-24 12 -39 -4 -37 3 -52 25 -52 10 0 19 -5 19 -11 0 -5 5 -7 12 -3 7 5 9 2 5
-8 -3 -10 0 -15 11 -14 9 0 17 -5 18 -11 3 -25 4 -25 18 -13 11 9 19 9 33 0
16 -10 15 -10 -4 -5 -14 4 -23 2 -23 -4 0 -6 8 -11 18 -12 14 0 14 -2 -3 -9
-19 -8 -19 -9 -1 -9 20 -1 13 -16 -7 -16 -7 0 -11 -8 -11 -17 1 -9 -4 -14 -10
-12 -6 2 -11 -6 -11 -21 0 -17 4 -24 13 -20 9 3 11 -1 8 -13 -4 -10 2 -27 12
-38 10 -11 18 -28 16 -38 -2 -13 2 -16 14 -11 9 3 13 3 9 -1 -4 -4 -2 -13 4
-20 8 -9 4 -12 -15 -10 -15 2 -26 -1 -26 -7 0 -5 -8 -3 -17 4 -13 11 -15 11
-9 1 6 -9 3 -12 -10 -10 -12 2 -18 -2 -16 -11 3 -12 0 -12 -12 -2 -11 9 -16 9
-22 0 -4 -8 -3 -9 4 -5 7 4 12 2 12 -4 0 -6 -15 -8 -42 -5 -31 4 -46 1 -61
-12 -11 -10 -17 -13 -13 -6 4 7 -2 21 -14 33 -21 21 -35 27 -25 10 4 -6 -1 -7
-11 -3 -11 4 -13 8 -6 11 8 2 6 13 -9 33 -11 16 -25 27 -30 24 -5 -4 -6 1 -3
9 4 11 0 14 -15 11 -14 -3 -27 6 -43 27 -12 18 -16 28 -9 24 10 -7 11 -4 2 11
-6 11 -7 24 -3 28 4 3 3 6 -3 5 -19 -4 -35 0 -35 9 0 5 10 7 23 5 12 -2 15 -1
7 2 -8 4 -17 10 -20 13 -3 4 -18 4 -35 0 -16 -4 -22 -7 -13 -8 20 -1 33 -17
15 -19 -32 -3 -51 -10 -55 -20 -5 -16 21 -15 37 1 10 10 15 9 25 -5 7 -10 16
-14 20 -10 4 4 7 2 6 -3 -4 -19 0 -36 8 -31 4 2 9 -4 9 -15 1 -10 -2 -19 -8
-19 -5 0 -8 3 -6 8 1 4 -2 8 -8 9 -5 2 -10 -3 -11 -10 -2 -27 -5 -29 -19 -17
-8 7 -15 9 -15 5 0 -4 -7 -2 -15 5 -10 9 -15 9 -15 1 0 -6 5 -11 11 -11 5 0 7
-6 3 -12 -5 -8 0 -7 11 2 17 14 18 14 6 -8 -12 -23 -12 -23 11 -12 19 10 21
10 11 -1 -15 -15 -17 -33 -4 -24 5 3 12 1 15 -4 4 -5 -2 -8 -11 -6 -10 2 -26
4 -35 4 -10 1 -20 12 -24 26 -3 14 -11 25 -18 25 -6 0 -4 5 4 10 8 5 11 10 5
11 -5 0 -20 2 -33 5 -13 2 -21 0 -18 -5 3 -5 -2 -15 -11 -22 -15 -12 -16 -12
-11 7 3 13 0 21 -7 21 -8 0 -12 -9 -10 -19 2 -10 -1 -18 -8 -17 -23 3 -37 -1
-37 -10 0 -5 10 -7 22 -3 14 3 19 1 14 -6 -9 -15 -55 -11 -49 4 2 7 0 15 -6
19 -6 3 -11 1 -11 -4 0 -6 -5 -11 -11 -11 -6 0 -8 7 -5 16 3 9 2 12 -5 9 -6
-4 -17 1 -25 11 -9 11 -13 13 -9 7 3 -7 -4 -23 -16 -35 -17 -18 -20 -19 -16
-5 4 9 2 17 -4 17 -6 0 -7 5 -3 12 4 7 3 8 -5 4 -6 -4 -9 -11 -6 -15 2 -5 -7
-6 -20 -3 -14 2 -22 8 -19 13 3 5 0 9 -6 9 -7 0 -9 -8 -5 -20 4 -11 2 -20 -4
-20 -11 0 -15 13 -12 38 1 6 -3 12 -9 12 -6 0 -9 4 -5 9 3 5 0 13 -6 17 -7 4
-9 3 -6 -3 4 -6 0 -14 -9 -17 -9 -4 -13 -2 -8 5 5 8 2 9 -12 1 -15 -8 -23 -5
-41 16 -34 39 -34 75 -1 107 11 11 18 15 14 9 -3 -7 2 -18 11 -25 14 -12 16
-12 8 0 -6 11 -4 13 8 8 9 -3 19 -1 23 5 4 7 3 8 -4 4 -19 -11 -14 5 6 21 11
10 8 10 -10 -1 -16 -9 -28 -12 -28 -6 0 6 7 13 15 16 8 4 12 10 9 15 -3 5 1 6
9 3 8 -3 17 2 21 11 3 10 12 15 21 11 9 -3 15 0 15 9 0 8 3 14 8 14 22 -4 31
3 25 18 -5 15 -3 14 10 -2 10 -12 16 -15 17 -7 0 7 4 11 9 8 5 -3 16 5 24 17
8 13 22 25 31 26 9 1 25 2 37 3 19 2 19 3 3 15 -15 11 -15 12 4 10 14 -1 19
-7 17 -24 -1 -12 2 -20 7 -17 5 3 15 0 23 -6 9 -7 15 -8 15 -2 0 5 -8 13 -17
17 -15 5 -13 10 16 35 21 19 31 35 27 45 -4 10 2 19 17 25 12 5 16 9 8 9 -8 1
-12 4 -8 7 3 3 -5 16 -18 29 -14 12 -22 25 -18 28 9 9 23 9 22 0 -3 -21 3 -33
16 -33 21 0 31 29 15 43 -10 9 -11 9 -5 -3 6 -10 1 -8 -13 4 -12 11 -22 24
-22 30 0 6 4 5 9 -2 6 -11 11 -10 25 3 16 17 23 40 8 31 -4 -2 -8 4 -8 15 0
20 11 25 21 9 3 -6 11 -10 16 -10 6 0 3 7 -6 16 -9 9 -25 14 -35 11 -22 -6
-28 8 -8 16 8 3 6 6 -4 6 -19 1 -24 -19 -8 -35 6 -6 2 -14 -13 -23 -20 -13
-21 -13 -8 2 12 15 11 17 -10 17 -18 0 -20 3 -10 9 11 7 9 10 -7 15 -12 4 -24
16 -27 26 -6 18 -7 18 -24 1 -10 -10 -21 -25 -24 -32 -4 -11 -6 -11 -6 -1 -2
24 -27 42 -40 29 -9 -9 -11 -8 -6 4 3 9 -1 22 -10 29 -9 7 -15 8 -15 2 0 -6 3
-12 7 -15 5 -2 2 -2 -6 0 -8 2 -18 -2 -23 -9 -4 -7 -8 -8 -8 -2 0 5 9 20 20
32 21 23 14 32 -8 10 -7 -7 -12 -8 -12 -2 0 6 6 16 13 23 10 10 9 11 -6 5 -13
-4 -16 -2 -12 9 5 11 -1 14 -23 11 -25 -3 -29 0 -25 15 3 13 -5 22 -29 34 -32
15 -33 15 -42 -6 -5 -14 -10 -17 -13 -9 -3 6 -14 12 -24 12 -11 0 -18 -4 -15
-9 8 -12 -30 -44 -43 -37 -5 4 -12 -3 -16 -14 -3 -11 -11 -20 -16 -20 -6 0 -8
-4 -5 -9 3 -5 -2 -12 -11 -15 -13 -5 -14 -9 -5 -15 9 -6 8 -13 -7 -30 -11 -12
-23 -23 -28 -24 -4 -1 -7 -5 -6 -9 2 -5 -2 -8 -8 -8 -11 0 -39 -25 -39 -35 0
-3 6 -3 13 1 6 4 -3 -6 -20 -23 -18 -17 -40 -33 -48 -37 -8 -3 -15 -11 -15
-17 0 -8 -5 -7 -17 2 -10 8 -14 9 -10 2 4 -6 3 -14 -3 -18 -5 -3 -10 -1 -10 4
0 6 -9 11 -20 11 -13 0 -18 -5 -14 -15 4 -9 -3 -19 -20 -26 -14 -7 -26 -17
-26 -23 0 -5 -6 -2 -13 8 -12 16 -13 16 -13 -3 0 -12 4 -21 8 -21 4 0 8 -5 8
-11 0 -5 -4 -8 -9 -4 -5 3 -11 -5 -13 -17 -2 -16 -9 -22 -20 -20 -10 2 -18 -2
-18 -7 0 -6 -7 -8 -15 -5 -8 4 -15 1 -15 -5 0 -6 -12 -16 -26 -22 -15 -5 -24
-13 -20 -16 4 -4 -8 -14 -26 -23 -18 -8 -37 -24 -43 -35 -5 -12 -19 -31 -31
-43 -18 -19 -23 -20 -33 -8 -6 8 -21 12 -31 9 -15 -4 -20 0 -20 16 0 11 -5 21
-11 21 -8 0 -8 4 -2 13 5 6 9 26 9 42 -1 17 5 36 12 43 7 8 9 18 6 23 -3 6 1
18 9 27 8 9 18 28 22 42 4 14 12 28 16 31 10 6 19 116 12 136 -3 7 -10 10 -16
6 -7 -4 -8 5 -4 25 5 24 3 32 -8 32 -8 0 -15 7 -15 15 0 8 -5 14 -11 12 -14
-3 -22 40 -10 48 5 3 8 -6 7 -19 -2 -17 1 -23 10 -19 8 3 11 10 7 17 -4 6 -6
20 -4 30 2 14 -1 17 -15 12 -17 -6 -17 -5 1 14 10 11 14 20 9 20 -5 0 -10 8
-10 19 0 12 5 17 14 13 11 -4 14 3 10 31 -2 19 0 33 4 31 9 -6 11 13 8 64 -1
18 2 32 7 31 20 -3 25 2 13 16 -7 8 -10 22 -6 30 3 10 -1 15 -12 16 -11 0 -12
2 -4 6 7 3 20 2 30 -2 14 -5 14 -7 2 -15 -8 -5 -11 -12 -7 -17 11 -11 25 14
22 41 -2 19 1 22 26 18 18 -3 29 0 29 7 0 7 -4 9 -10 6 -5 -3 -10 -1 -10 4 0
6 4 11 9 11 5 0 11 10 13 22 3 23 35 34 35 12 0 -10 -4 -11 -14 -3 -10 9 -13
8 -13 -2 0 -10 14 -14 43 -15 23 -1 35 0 26 3 -18 4 -29 30 -22 51 6 15 33 16
33 0 0 -6 3 -8 7 -4 5 4 -1 14 -11 22 -11 8 -14 14 -8 14 7 0 12 5 12 11 0 5
-4 8 -9 5 -5 -4 -4 5 2 19 7 14 15 25 20 25 4 0 7 5 7 11 0 5 -5 7 -10 4 -6
-3 -10 1 -10 9 0 8 -5 18 -10 21 -7 4 -9 -3 -5 -22 4 -20 3 -23 -3 -9 -6 14
-11 16 -16 8 -4 -7 -12 -12 -17 -12 -6 0 -7 5 -3 12 5 7 2 9 -9 5 -11 -4 -14
-2 -10 9 3 7 0 14 -6 14 -6 0 -11 5 -11 11 0 5 5 7 10 4 6 -3 10 -1 10 4 0 6
-6 11 -12 11 -8 0 -14 15 -15 35 -1 21 3 35 10 35 6 0 1 7 -12 16 -18 13 -20
18 -10 26 10 6 4 8 -19 5 -20 -2 -29 0 -23 6 8 8 -20 47 -34 47 -6 0 -37 26
-75 65 -17 16 -30 25 -30 20 -1 -6 -6 -1 -13 10 -7 11 -19 22 -27 23 -8 2 -22
5 -30 7 -8 2 -23 6 -32 10 -11 4 -20 0 -27 -13 -12 -22 -69 -35 -88 -20 -19
16 -15 27 7 23 11 -2 18 0 15 5 -3 5 -1 11 5 15 5 3 10 1 10 -5 0 -6 5 -8 10
-5 17 11 -36 53 -75 61 -19 3 -38 10 -41 15 -3 5 -14 9 -25 9 -19 0 -52 23
-44 31 2 2 -7 4 -20 4 -19 0 -21 -3 -12 -14 9 -12 9 -13 0 -7 -8 4 -13 2 -14
-6 0 -7 -7 4 -16 24 -8 21 -19 35 -24 32 -5 -3 -9 -1 -9 5 0 5 -14 7 -31 4
-20 -3 -29 -1 -25 6 4 6 -6 9 -28 7 -37 -2 -73 25 -60 46 5 7 2 9 -8 5 -11 -4
-18 1 -21 14 -3 13 -14 19 -31 19 -14 0 -26 5 -26 10 0 6 5 10 10 10 20 0 10
16 -11 17 -26 2 -51 22 -43 35 4 6 -2 8 -15 3 -12 -4 -21 -2 -21 4 0 6 -5 11
-11 11 -5 0 -7 -6 -3 -12 6 -10 5 -10 -7 -1 -12 10 -18 10 -28 0 -10 -9 -11
-8 -5 7 6 16 4 18 -10 13 -14 -6 -17 -3 -12 8 3 9 2 13 -3 10 -5 -3 -13 0 -16
6 -4 5 -13 8 -21 5 -10 -4 -14 2 -14 18 0 19 -4 23 -20 19 -12 -3 -20 0 -20 7
0 7 -8 10 -20 7 -11 -3 -17 -1 -14 4 10 16 -6 47 -24 45 -9 0 -16 5 -14 12 2
10 -2 10 -19 1 -18 -9 -21 -9 -17 3 3 8 0 22 -8 33 -9 13 -14 14 -14 5 0 -9
-5 -7 -15 6 -11 14 -14 15 -9 3 3 -10 1 -20 -5 -24 -7 -4 -11 4 -11 19 0 14
-4 26 -10 26 -5 0 -10 9 -10 20 0 19 -9 24 -36 21 -6 -1 -10 10 -9 23 2 18 -1
23 -11 19 -8 -3 -15 0 -15 6 -1 6 -3 16 -4 21 -1 6 -3 16 -4 23 -1 8 -4 7 -11
-3 -9 -13 -11 -13 -19 0 -5 8 -7 18 -4 23 3 5 -4 4 -15 -2 -15 -8 -23 -8 -28
1 -4 6 -3 8 4 4 6 -3 13 -2 17 4 4 6 -5 10 -20 10 -15 0 -24 -4 -20 -10 10
-16 -5 -12 -31 9 -13 10 -20 21 -17 25 3 3 -2 6 -13 6 -16 0 -17 2 -4 11 12 8
10 9 -8 4 -18 -5 -25 -2 -29 14 -3 11 -14 23 -24 26 -11 4 -16 11 -13 17 5 7
1 9 -9 5 -12 -4 -17 -1 -18 11 0 14 -2 14 -7 2 -11 -24 -27 -21 -28 5 -1 18 2
22 15 18 11 -4 10 -1 -4 10 -15 11 -22 12 -28 4 -6 -9 -10 -9 -13 0 -3 6 -16
24 -29 39 -17 20 -23 23 -21 10 1 -10 9 -22 17 -27 8 -5 10 -9 5 -9 -5 0 -18
7 -28 17 -17 15 -18 15 -18 0 0 -27 -16 -19 -35 17 -19 34 -19 36 0 55 10 12
14 21 10 21 -4 0 -1 8 8 18 10 10 14 22 10 26 -4 4 -2 11 5 15 10 6 10 15 0
42 -6 19 -16 37 -22 41 -6 4 -11 13 -11 20 0 7 -11 15 -24 16 -15 2 -21 0 -17
-7 4 -6 2 -11 -4 -11 -6 0 -8 -5 -4 -12 4 -7 3 -8 -5 -4 -6 4 -9 12 -6 17 4 5
-1 9 -9 9 -19 0 -21 26 -3 34 9 5 9 7 0 12 -10 4 -10 8 0 19 10 11 17 9 41
-13 16 -15 26 -22 22 -15 -3 6 -1 13 5 15 9 3 8 14 -1 40 -8 21 -16 35 -19 33
-4 -2 -6 12 -5 31 2 27 -1 32 -11 24 -10 -8 -13 -6 -11 7 1 17 -23 18 -411 21
l-413 2 0 -2560z m2864 2478 c-3 -4 -11 -5 -19 -1 -21 7 -19 12 4 10 11 0 18
-5 15 -9z m389 -3 c-3 -9 -8 -14 -10 -11 -3 3 -2 9 2 15 9 16 15 13 8 -4z
m1027 -35 c0 -5 -4 -10 -10 -10 -5 0 -10 5 -10 10 0 6 5 10 10 10 6 0 10 -4
10 -10z m-1476 -156 c4 -9 5 -17 4 -18 -2 -1 -10 -7 -20 -14 -12 -10 -18 -10
-24 -1 -4 7 -3 9 3 6 6 -4 16 0 23 8 7 8 9 15 4 16 -49 4 -70 19 -27 19 19 0
33 -6 37 -16z m-1909 -4 c3 -6 -1 -7 -9 -4 -18 7 -21 14 -7 14 6 0 13 -4 16
-10z m1937 -55 c13 -28 6 -40 -16 -32 -10 4 -13 13 -9 23 4 12 3 15 -5 10 -8
-5 -10 -2 -6 8 9 23 23 19 36 -9z m28 -69 c0 -3 -4 -8 -10 -11 -5 -3 -10 -1
-10 4 0 6 5 11 10 11 6 0 10 -2 10 -4z m-2 -71 c0 -14 -4 -28 -9 -31 -10 -6
-12 17 -3 40 9 22 12 20 12 -9z m-28 -15 c0 -5 -5 -10 -11 -10 -5 0 -7 5 -4
10 3 6 8 10 11 10 2 0 4 -4 4 -10z m-1829 -127 c13 -16 12 -17 -3 -4 -10 7
-18 15 -18 17 0 8 8 3 21 -13z m-33 -58 c-3 -3 -9 2 -12 12 -6 14 -5 15 5 6 7
-7 10 -15 7 -18z m-44 -31 c14 -14 17 -14 22 0 3 8 12 12 20 9 8 -3 12 -9 9
-13 -3 -4 1 -7 8 -6 6 0 12 -3 12 -9 0 -5 -4 -9 -8 -7 -5 1 -6 -2 -2 -8 5 -8
11 -8 19 -1 7 6 17 7 21 3 5 -4 5 -1 0 6 -6 11 -3 12 14 3 11 -7 21 -14 21
-17 0 -3 -4 -3 -9 1 -6 3 -9 -4 -8 -15 1 -19 9 -24 32 -21 17 2 12 -43 -8 -70
-10 -13 -15 -18 -12 -11 3 6 1 12 -4 12 -6 0 -11 -4 -11 -9 0 -14 -42 -4 -52
11 -5 8 -11 9 -15 3 -5 -5 -17 -17 -28 -25 -16 -11 -17 -11 -7 0 6 8 12 22 12
32 0 14 -8 18 -37 19 -21 0 -32 3 -24 6 11 5 11 7 0 14 -11 7 -11 9 -1 9 10 0
10 5 1 21 -8 17 -8 23 1 29 7 4 9 13 6 19 -4 6 -1 11 6 11 9 0 9 3 -2 10 -9 6
-10 10 -3 10 6 0 19 -7 27 -16z m3331 6 c3 -5 1 -10 -4 -10 -6 0 -11 5 -11 10
0 6 2 10 4 10 3 0 8 -4 11 -10z m-1 -49 c-2 -3 -12 3 -22 13 -16 17 -16 18 5
5 12 -7 20 -15 17 -18z m-3414 -1 c0 -5 -2 -10 -4 -10 -3 0 -8 5 -11 10 -3 6
-1 10 4 10 6 0 11 -4 11 -10z m25 -20 c3 -5 1 -10 -4 -10 -6 0 -11 5 -11 10 0
6 2 10 4 10 3 0 8 -4 11 -10z m685 -250 c0 -5 -4 -10 -10 -10 -5 0 -10 5 -10
10 0 6 5 10 10 10 6 0 10 -4 10 -10z m74 -45 c3 -8 1 -15 -4 -15 -6 0 -10 7
-10 15 0 8 2 15 4 15 2 0 6 -7 10 -15z m50 -85 c-6 -5 -24 21 -24 34 0 6 6 1
14 -10 8 -10 12 -21 10 -24z m-253 -80 c6 0 7 -4 4 -10 -10 -16 7 -12 27 7 14
13 19 13 16 4 -3 -15 49 -24 58 -10 2 5 12 5 20 2 13 -5 13 -7 2 -14 -11 -7
-10 -11 2 -18 9 -7 19 -6 29 2 12 9 13 9 7 0 -4 -7 -3 -13 3 -13 5 0 12 6 15
13 3 6 3 -6 -1 -27 -4 -28 -3 -37 6 -32 14 9 14 5 1 -28 -6 -17 -6 -26 0 -26
6 0 8 -11 6 -25 -3 -14 0 -25 5 -25 5 0 9 -5 9 -11 0 -5 -5 -7 -12 -3 -6 4 -8
3 -5 -3 13 -21 -5 -75 -30 -86 -15 -7 -21 -16 -18 -27 4 -14 -3 -19 -34 -24
-21 -3 -41 -13 -45 -21 -3 -8 -12 -15 -20 -15 -8 0 -18 -9 -21 -20 -4 -11 -11
-18 -16 -15 -5 4 -10 -17 -10 -47 l-2 -53 -8 60 c-5 33 -9 66 -10 74 -1 8 -11
16 -21 19 -10 2 -18 8 -18 13 0 4 -9 6 -19 4 -11 -2 -22 3 -25 11 -3 8 -16 14
-29 14 -34 0 -40 10 -20 33 10 11 13 17 6 14 -7 -5 -19 12 -32 48 -23 61 -25
68 -13 62 4 -3 7 13 6 34 0 26 5 43 15 48 12 8 13 12 2 25 -11 13 -9 16 16 23
15 4 34 6 41 5 6 -2 12 1 12 7 0 5 14 6 34 1 19 -4 37 -5 40 -2 4 3 7 26 8 51
1 37 2 39 5 14 2 -18 9 -33 14 -33z m-1203 -2 c2 -15 -3 -28 -12 -31 -20 -8
-36 14 -30 40 8 29 38 22 42 -9z m1787 -38 c3 -5 1 -10 -4 -10 -6 0 -11 5 -11
10 0 6 2 10 4 10 3 0 8 -4 11 -10z m1935 -20 c0 -5 -5 -10 -11 -10 -5 0 -7 5
-4 10 3 6 8 10 11 10 2 0 4 -4 4 -10z m298 -15 c-3 -3 -9 2 -12 12 -6 14 -5
15 5 6 7 -7 10 -15 7 -18z m-2321 -67 c-3 -8 -6 -5 -6 6 -1 11 2 17 5 13 3 -3
4 -12 1 -19z m2040 -53 c0 -20 -24 -27 -31 -9 -3 8 -2 12 3 9 5 -3 12 -1 16 5
9 14 12 13 12 -5z m43 -15 c0 -5 -2 -10 -4 -10 -3 0 -8 5 -11 10 -3 6 -1 10 4
10 6 0 11 -4 11 -10z m-122 -12 c-2 -6 -10 -14 -16 -16 -7 -2 -10 2 -6 12 7
18 28 22 22 4z m32 -9 c0 -5 -4 -9 -10 -9 -5 0 -10 7 -10 16 0 8 5 12 10 9 6
-3 10 -10 10 -16z m70 1 c0 -5 -7 -10 -16 -10 -8 0 -12 5 -9 10 3 6 10 10 16
10 5 0 9 -4 9 -10z m-3030 -15 c0 -17 -2 -18 -25 -9 -13 5 -14 8 -3 15 19 13
28 11 28 -6z m1388 -8 c2 -12 -1 -15 -12 -11 -19 7 -22 38 -3 32 6 -3 13 -12
15 -21z m1443 6 c13 -16 12 -17 -3 -4 -10 7 -18 15 -18 17 0 8 8 3 21 -13z
m-196 -3 c3 -6 -1 -7 -9 -4 -18 7 -21 14 -7 14 6 0 13 -4 16 -10z m-1425 -70
c0 -5 -4 -10 -10 -10 -5 0 -10 5 -10 10 0 6 5 10 10 10 6 0 10 -4 10 -10z
m-312 -28 c2 -7 -3 -12 -12 -12 -9 0 -16 7 -16 16 0 17 22 14 28 -4z m599 -47
c0 -17 -13 -20 -21 -6 -4 5 0 12 6 14 7 3 13 6 14 6 0 1 1 -6 1 -14z m223
-115 c0 -5 -2 -10 -4 -10 -3 0 -8 5 -11 10 -3 6 -1 10 4 10 6 0 11 -4 11 -10z
m-2092 -141 c3 -30 -2 -41 -24 -58 -37 -29 -69 -36 -102 -22 -21 9 -28 18 -26
34 1 12 3 27 3 34 1 7 11 22 23 33 18 17 33 20 73 18 50 -3 50 -3 53 -39z
m1936 15 c3 -8 2 -12 -4 -9 -6 3 -10 10 -10 16 0 14 7 11 14 -7z m1661 -66
c-1 -18 3 -28 12 -28 11 0 11 4 2 21 -8 17 -8 24 3 36 13 12 16 12 27 -1 13
-15 6 -40 -8 -32 -10 6 -8 -25 3 -42 4 -7 2 -12 -4 -12 -6 0 -8 -5 -4 -12 4
-7 3 -8 -4 -4 -6 4 -9 13 -6 20 3 9 -1 13 -13 13 -13 -2 -17 4 -16 21 3 20 -7
27 -30 23 -5 -1 -6 3 -2 9 3 5 12 10 20 10 8 0 12 8 9 23 -4 19 -3 20 4 3 5
-11 8 -32 7 -48z m-1480 4 c-3 -3 -11 0 -18 7 -9 10 -8 11 6 5 10 -3 15 -9 12
-12z m-705 -41 c0 -23 -16 -36 -25 -21 -9 14 1 40 15 40 5 0 10 -9 10 -19z
m2250 15 c0 -3 -4 -8 -10 -11 -5 -3 -10 -1 -10 4 0 6 5 11 10 11 6 0 10 -2 10
-4z m-1630 -81 c0 -20 -20 -29 -33 -16 -9 9 -7 10 7 5 16 -6 18 -4 14 14 -4
12 -2 20 3 16 5 -3 9 -11 9 -19z m-227 -29 c-3 -13 -1 -17 4 -10 4 6 16 11 25
11 15 0 15 -3 2 -29 -8 -15 -17 -28 -20 -28 -3 0 -2 5 1 10 3 6 1 10 -4 10 -6
0 -11 -7 -11 -15 0 -9 -6 -12 -17 -8 -12 5 -15 2 -10 -10 7 -18 -10 -19 -28
-2 -23 21 -26 48 -7 65 35 33 71 36 65 6z m1862 -56 c3 -5 1 -10 -4 -10 -6 0
-11 5 -11 10 0 6 2 10 4 10 3 0 8 -4 11 -10z m-2448 -77 c12 -15 21 -36 20
-48 -2 -16 4 -20 25 -20 15 -1 30 -4 34 -8 4 -4 0 -7 -9 -7 -9 0 -19 -5 -23
-12 -4 -7 -3 -8 4 -4 8 5 11 -4 10 -27 -1 -19 2 -39 6 -45 4 -7 3 -12 -3 -12
-5 0 -12 6 -14 13 -3 7 -6 4 -6 -7 -1 -12 -6 -16 -16 -12 -8 3 -15 4 -15 2 0
-3 -3 -12 -7 -22 -5 -13 -3 -15 8 -10 8 4 6 1 -3 -7 -17 -13 -17 -15 0 -31 10
-9 22 -13 25 -10 4 4 9 -1 13 -10 4 -11 14 -14 36 -11 17 3 27 2 24 -4 -4 -5
3 -7 16 -3 16 4 20 1 16 -9 -3 -8 -2 -23 2 -34 4 -11 3 -26 -2 -32 -7 -9 -7
-13 1 -13 6 0 10 -5 9 -12 -2 -6 10 -12 27 -12 23 -1 29 3 27 16 -3 19 29 19
36 0 5 -15 23 -16 20 -1 -2 6 5 13 15 14 9 2 17 -1 17 -6 0 -5 -4 -9 -10 -9
-5 0 -7 -7 -3 -16 5 -13 7 -13 14 -2 6 8 7 -1 3 -22 -4 -26 -3 -31 5 -20 6 8
11 10 11 4 0 -6 -7 -17 -16 -25 -8 -7 -13 -21 -11 -31 3 -10 1 -16 -3 -13 -5
3 -11 -4 -15 -15 -3 -11 -12 -20 -20 -20 -7 0 -12 -8 -10 -17 1 -10 -7 -29
-19 -42 -11 -13 -14 -20 -6 -16 10 5 8 1 -4 -13 -11 -12 -17 -22 -13 -22 3 0
-10 -28 -29 -62 -19 -35 -37 -71 -40 -80 -4 -10 -11 -18 -16 -18 -5 0 -6 -4
-3 -10 3 -5 2 -10 -4 -10 -5 0 -13 -9 -16 -21 -4 -11 -26 -44 -49 -72 -23 -29
-41 -58 -38 -65 2 -6 -3 -12 -11 -12 -17 0 -49 -34 -40 -43 6 -7 -12 -11 -30
-8 -5 1 -5 -3 -2 -9 4 -6 -12 -28 -36 -48 -24 -20 -50 -45 -58 -54 -9 -10 -21
-18 -28 -18 -7 0 -13 -7 -13 -15 0 -8 -7 -15 -16 -15 -8 0 -13 -4 -10 -8 3 -5
-22 -22 -55 -38 -40 -19 -66 -40 -80 -62 -13 -23 -25 -32 -35 -28 -8 3 -13 2
-9 -3 3 -5 -12 -15 -32 -22 -21 -7 -43 -19 -49 -27 -6 -9 -18 -13 -27 -9 -10
4 -14 2 -11 -6 5 -15 -35 -82 -44 -73 -3 4 0 12 8 17 12 8 11 9 -5 6 -11 -2
-19 -9 -17 -17 3 -11 0 -11 -14 1 -12 9 -15 9 -10 2 5 -9 1 -13 -12 -13 -11 0
-27 -10 -36 -22 -9 -13 -15 -18 -12 -12 3 7 -3 14 -15 17 -13 3 -22 0 -26 -10
-5 -12 -7 -12 -14 -2 -6 10 -9 9 -15 -4 -5 -13 -10 -15 -20 -6 -19 15 -71 22
-79 9 -3 -6 -11 -8 -16 -5 -5 3 -25 2 -44 -4 -19 -5 -33 -6 -30 -1 4 7 -58 21
-103 24 -8 1 -19 14 -26 31 -10 25 -13 26 -19 12 -4 -11 -3 -16 3 -12 6 3 10
1 10 -5 0 -7 -6 -10 -13 -7 -6 2 -11 12 -9 22 3 14 -1 16 -17 12 -12 -3 -19
-1 -15 4 3 5 0 9 -5 9 -6 0 -11 8 -12 18 0 10 -3 12 -6 5 -2 -7 -12 -13 -21
-13 -14 0 -14 2 -3 9 19 12 6 41 -17 41 -22 0 -46 23 -35 33 3 4 -1 7 -10 7
-16 0 -22 -17 -18 -47 1 -7 -4 -13 -11 -13 -9 0 -9 -3 2 -11 11 -8 12 -12 2
-16 -21 -8 -43 -34 -37 -44 4 -5 1 -9 -5 -9 -7 0 -9 -7 -6 -15 3 -9 1 -15 -7
-14 -26 3 -37 -2 -37 -17 0 -8 -5 -12 -10 -9 -6 3 -10 1 -10 -5 0 -6 -6 -10
-12 -9 -27 3 -38 -2 -38 -16 0 -27 -20 -16 -21 13 -1 15 -1 30 -1 33 1 7 -58
2 -65 -5 -2 -2 -18 9 -36 25 -37 34 -44 35 -71 12 l-20 -18 20 30 c20 30 31
85 16 85 -9 0 -9 52 1 67 4 7 -6 27 -25 49 l-33 37 44 -29 c31 -20 46 -25 49
-16 2 6 8 10 13 7 5 -3 18 -1 29 5 12 6 34 12 51 12 l29 1 1 81 c1 45 4 71 6
59 5 -26 13 -29 32 -10 11 10 13 9 9 -3 -7 -19 6 -37 46 -68 22 -17 32 -19 42
-11 8 6 21 9 29 5 9 -3 14 -2 11 3 -3 5 1 14 9 21 8 7 15 19 15 26 0 17 20 19
21 2 0 -7 4 -4 9 7 l9 20 0 -20 c1 -11 5 -16 9 -10 9 13 31 12 62 -4 22 -11
23 -10 8 2 -10 8 -14 18 -10 22 4 5 2 6 -3 2 -6 -3 -18 8 -27 24 -16 27 -16
29 0 39 16 9 15 9 -2 10 -15 0 -17 5 -13 30 8 38 -1 64 -17 51 -9 -8 -12 1
-11 32 0 32 7 49 27 70 15 16 31 26 35 24 5 -3 9 3 10 13 1 13 -3 17 -15 14
-9 -2 -7 1 5 7 13 7 25 20 28 30 4 11 11 19 16 19 6 0 8 4 5 9 -8 13 23 71 39
71 7 0 24 6 37 13 20 10 23 17 17 34 -5 13 -4 25 1 28 6 4 10 -3 10 -15 0 -27
21 -22 35 8 5 12 17 22 25 23 10 0 11 2 3 6 -10 3 -10 7 0 18 7 7 17 10 22 7
6 -3 2 4 -8 15 -23 27 -21 41 8 55 14 6 25 15 25 19 0 4 9 11 20 14 13 4 20
15 20 33 0 21 2 24 10 12 11 -17 13 -10 4 14 -3 9 -10 13 -15 10 -5 -3 -9 0
-9 6 0 6 -4 8 -10 5 -5 -3 -10 -1 -10 5 0 6 -4 9 -9 6 -16 -10 -19 18 -4 33
12 11 17 11 26 1 9 -10 9 -11 0 -6 -8 4 -11 2 -8 -6 8 -21 43 -17 38 3 -5 18
29 44 42 31 3 -4 5 0 3 8 -1 8 2 14 9 15 6 0 25 13 43 28 20 18 39 27 51 24
10 -3 17 0 16 6 -1 6 4 12 11 13 6 1 15 3 20 4 4 1 11 2 16 1 5 -1 4 4 -3 13
-9 11 -9 16 0 22 8 4 9 3 5 -4 -4 -7 -2 -12 3 -12 6 0 11 6 11 13 0 17 73 83
102 93 13 4 29 14 36 23 10 12 12 12 6 1 -7 -12 -5 -13 8 -3 8 7 19 9 23 5 5
-4 5 -2 1 5 -6 12 28 29 50 25 7 -1 14 5 18 14 4 10 16 15 33 14 42 -3 55 -1
49 8 -5 8 25 14 77 16 15 1 27 4 27 7 0 6 7 8 62 12 20 1 40 6 43 9 13 13 51
-2 72 -29z m2553 -29 c0 -14 -21 -19 -33 -8 -8 8 16 33 26 27 4 -2 7 -11 7
-19z m-236 -12 c3 -5 -1 -9 -9 -9 -8 0 -12 4 -9 9 3 4 7 8 9 8 2 0 6 -4 9 -8z
m-3937 -42 c-1 -11 -7 -20 -14 -20 -15 0 -15 2 -7 24 9 23 23 20 21 -4z m3198
0 c-4 -6 -1 -19 6 -28 7 -9 9 -14 5 -10 -5 4 -15 3 -22 -3 -9 -8 -12 -6 -9 8
2 10 4 24 4 31 1 6 6 12 12 12 5 0 7 -5 4 -10z m-2435 -4 c0 -3 -4 -8 -10 -11
-5 -3 -10 -1 -10 4 0 6 5 11 10 11 6 0 10 -2 10 -4z m2393 -31 c-3 -9 -8 -14
-10 -11 -3 3 -2 9 2 15 9 16 15 13 8 -4z m-793 -40 c0 -5 -5 -3 -10 5 -5 8
-10 20 -10 25 0 6 5 3 10 -5 5 -8 10 -19 10 -25z m-315 -40 c0 -14 -3 -25 -6
-25 -9 0 -18 37 -11 44 11 12 17 5 17 -19z m-354 -8 c-6 -8 -9 -16 -6 -18 2
-3 -5 -5 -15 -6 -11 -1 -20 3 -20 8 0 6 5 7 12 3 8 -5 9 -2 5 9 -5 13 -1 17
15 17 16 0 18 -3 9 -13z m-966 -16 c3 -5 -4 -16 -15 -24 -11 -7 -17 -17 -12
-22 4 -4 -1 -5 -10 -2 -11 4 -15 2 -12 -7 3 -7 -2 -16 -10 -19 -11 -5 -16 0
-16 13 0 10 9 22 20 25 11 3 20 11 20 16 0 5 8 9 18 10 14 0 14 2 -3 9 -16 7
-17 9 -3 9 9 1 19 -3 23 -8z m1387 -35 c3 -16 1 -23 -7 -19 -7 2 -11 13 -8 24
7 25 10 24 15 -5z m-462 4 c0 -5 -2 -10 -4 -10 -3 0 -8 5 -11 10 -3 6 -1 10 4
10 6 0 11 -4 11 -10z m-1115 -10 c3 -5 1 -10 -4 -10 -6 0 -11 5 -11 10 0 6 2
10 4 10 3 0 8 -4 11 -10z m2913 -22 c-2 -6 -10 -14 -16 -16 -7 -2 -10 2 -6 12
7 18 28 22 22 4z m-1336 -26 c3 -11 -2 -23 -13 -30 -26 -16 -37 -15 -14 1 13
10 15 16 6 21 -6 4 -9 12 -6 17 10 15 22 10 27 -9z m1275 -14 c-3 -8 -6 -5 -6
6 -1 11 2 17 5 13 3 -3 4 -12 1 -19z m-490 -40 c-3 -8 -6 -5 -6 6 -1 11 2 17
5 13 3 -3 4 -12 1 -19z m-107 -48 c0 -5 -5 -10 -11 -10 -5 0 -7 5 -4 10 3 6 8
10 11 10 2 0 4 -4 4 -10z m675 -30 c-3 -5 -14 -10 -23 -9 -14 0 -13 2 3 9 27
11 27 11 20 0z m-1410 -10 c3 -5 1 -10 -4 -10 -6 0 -11 5 -11 10 0 6 2 10 4
10 3 0 8 -4 11 -10z m-35 -30 c0 -5 -5 -10 -11 -10 -5 0 -7 5 -4 10 3 6 8 10
11 10 2 0 4 -4 4 -10z m-1374 -87 c-10 -10 -19 5 -10 18 6 11 8 11 12 0 2 -7
1 -15 -2 -18z m-16 -33 c0 -5 -4 -10 -10 -10 -5 0 -10 5 -10 10 0 6 5 10 10
10 6 0 10 -4 10 -10z m-30 -14 c0 -3 -4 -8 -10 -11 -5 -3 -10 -1 -10 4 0 6 5
11 10 11 6 0 10 -2 10 -4z m1763 -11 c-3 -9 -8 -14 -10 -11 -3 3 -2 9 2 15 9
16 15 13 8 -4z m107 -49 c0 -3 -4 -8 -10 -11 -5 -3 -10 -1 -10 4 0 6 5 11 10
11 6 0 10 -2 10 -4z m1990 -15 c0 -6 -4 -13 -10 -16 -5 -3 -10 1 -10 9 0 9 5
16 10 16 6 0 10 -4 10 -9z m-805 -41 c3 -6 -1 -7 -9 -4 -18 7 -21 14 -7 14 6
0 13 -4 16 -10z m-1595 -39 c0 -6 -4 -13 -10 -16 -5 -3 -10 1 -10 9 0 9 5 16
10 16 6 0 10 -4 10 -9z m1300 -135 c0 -2 -8 -7 -17 -10 -10 -4 -14 -4 -10 0 4
4 1 14 -6 22 -10 13 -9 14 11 3 12 -6 22 -13 22 -15z m819 2 c14 5 14 4 2 -11
-8 -10 -14 -16 -15 -15 -1 2 -8 12 -16 23 -10 14 -10 17 -1 8 7 -6 21 -9 30
-5z m101 9 c0 -2 -18 -21 -41 -42 -41 -41 -46 -23 -6 23 17 18 47 31 47 19z
m-599 -30 c-10 -9 -11 -8 -5 6 3 10 9 15 12 12 3 -3 0 -11 -7 -18z m-471 9 c0
-3 -4 -8 -10 -11 -5 -3 -10 -1 -10 4 0 6 5 11 10 11 6 0 10 -2 10 -4z m700
-19 c0 -4 6 -5 13 -1 9 6 9 5 0 -8 -7 -8 -12 -17 -10 -19 1 -2 -2 0 -8 6 -5 5
-16 15 -24 22 -11 10 -10 12 8 10 11 -1 21 -5 21 -10z m-610 -28 c0 -5 -4 -9
-10 -9 -5 0 -10 7 -10 16 0 8 5 12 10 9 6 -3 10 -10 10 -16z m-154 -12 c4 -4
0 -7 -9 -7 -9 0 -18 4 -21 9 -7 10 20 9 30 -2z m604 -8 c0 -4 -7 -6 -15 -3 -8
4 -15 10 -15 15 0 4 7 6 15 3 8 -4 15 -10 15 -15z m165 -37 c-2 -7 -1 -10 5
-7 5 3 8 -3 7 -14 -1 -12 -6 -17 -16 -13 -10 4 -12 1 -6 -8 6 -10 2 -11 -21
-6 -16 4 -33 12 -39 18 -7 8 -6 9 3 4 7 -4 12 -2 13 6 0 10 2 10 6 1 2 -7 8
-13 12 -13 4 0 8 6 8 13 0 6 4 21 9 31 5 14 4 17 -4 12 -8 -5 -10 -1 -5 10 6
15 7 15 20 -2 7 -10 11 -24 8 -32z m-682 -14 c-2 -5 -13 -13 -23 -18 -16 -8
-18 -8 -14 5 4 8 14 15 23 16 9 0 11 3 4 5 -7 3 -9 13 -6 21 6 14 7 14 13 -3
4 -10 6 -22 3 -26z m494 17 c0 -8 -4 -15 -9 -15 -4 0 -8 7 -8 15 0 8 4 15 8
15 5 0 9 -7 9 -15z m32 8 c-4 -22 3 -24 21 -8 11 10 20 13 20 8 0 -6 -7 -13
-15 -16 -8 -4 -12 -15 -10 -27 3 -18 2 -20 -10 -10 -8 7 -12 16 -9 21 3 5 0 9
-5 9 -6 0 -11 7 -11 15 0 8 5 15 10 15 6 0 9 -3 9 -7z m-476 -56 c-8 -5 -17
-6 -20 -3 -4 3 -1 6 5 6 7 0 12 5 12 11 0 5 -4 7 -10 4 -11 -7 -14 8 -3 18 3
4 12 -1 19 -11 10 -14 10 -18 -3 -25z m56 11 c-10 -18 -9 -18 10 -8 12 6 21 7
21 2 0 -5 -12 -14 -26 -21 -19 -8 -24 -16 -19 -29 4 -9 8 -26 10 -36 1 -11 7
-22 13 -24 6 -2 8 -10 5 -19 -5 -13 -9 -11 -25 8 -13 16 -21 20 -25 11 -2 -6
-9 -9 -14 -6 -6 3 -19 -2 -30 -12 -10 -9 -19 -12 -19 -7 0 6 7 14 16 17 9 4
14 9 11 12 -3 3 -14 1 -25 -5 -17 -9 -19 -8 -15 8 3 10 -1 30 -8 42 -9 18 -4
16 21 -10 19 -18 36 -29 38 -22 2 6 16 12 30 12 17 1 21 3 9 6 -18 5 -16 35 5
76 5 9 6 22 3 27 -3 6 1 7 9 4 12 -5 13 -10 5 -26z m-2925 7 c3 -8 1 -15 -4
-15 -6 0 -10 7 -10 15 0 8 2 15 4 15 2 0 6 -7 10 -15z m3586 -5 c0 -5 -2 -10
-4 -10 -3 0 -8 5 -11 10 -3 6 -1 10 4 10 6 0 11 -4 11 -10z m-595 -48 c-11
-11 -25 15 -19 33 7 17 8 16 16 -5 5 -13 6 -25 3 -28z m-215 18 c0 -5 -5 -10
-11 -10 -5 0 -7 5 -4 10 3 6 8 10 11 10 2 0 4 -4 4 -10z m67 -6 c-3 -3 -12 -4
-19 -1 -8 3 -5 6 6 6 11 1 17 -2 13 -5z m-139 -39 c-3 -3 -9 2 -12 12 -6 14
-5 15 5 6 7 -7 10 -15 7 -18z m175 10 c-3 -9 -8 -14 -10 -11 -3 3 -2 9 2 15 9
16 15 13 8 -4z m-81 -32 c-6 -2 -9 -10 -6 -15 4 -7 2 -8 -5 -4 -13 9 -5 26 12
25 9 0 8 -2 -1 -6z m178 -15 c0 -8 3 -9 8 -3 4 6 14 12 22 13 8 2 12 1 8 -3
-4 -4 0 -14 8 -22 8 -9 13 -22 9 -31 -5 -12 -3 -13 10 -2 9 7 14 19 11 27 -4
8 -1 11 5 8 6 -4 8 -13 5 -21 -4 -9 2 -14 16 -14 30 0 19 -7 -19 -13 -17 -3
-36 -8 -41 -11 -5 -3 -9 1 -9 9 0 8 4 15 9 15 5 0 6 5 2 12 -5 7 -11 5 -21 -7
-14 -21 -47 -31 -37 -12 5 9 3 8 -6 0 -9 -9 -19 -9 -32 -2 -11 6 -31 8 -44 5
-18 -5 -22 -3 -18 9 7 18 35 20 52 3 9 -9 16 -7 32 10 21 22 27 37 10 27 -5
-3 -10 -1 -10 4 0 6 7 11 15 11 8 0 15 -6 15 -12z m-1800 -39 c0 -21 -8 -23
-30 -9 -10 6 -11 10 -2 10 6 0 12 7 12 16 0 8 5 12 10 9 6 -3 10 -15 10 -26z
m2715 11 c3 -5 1 -10 -4 -10 -6 0 -11 5 -11 10 0 6 2 10 4 10 3 0 8 -4 11 -10z
m-774 -17 c13 -16 12 -17 -3 -4 -17 13 -22 21 -14 21 2 0 10 -8 17 -17z m92 3
c4 -10 1 -13 -8 -9 -8 3 -12 9 -9 14 7 12 11 11 17 -5z m-838 -6 c3 -5 1 -10
-4 -10 -6 0 -11 5 -11 10 0 6 2 10 4 10 3 0 8 -4 11 -10z m738 -27 c3 -5 -5
-8 -18 -8 -13 0 -21 3 -18 8 2 4 10 7 18 7 8 0 16 -3 18 -7z m42 -9 c-9 -9
-19 -13 -23 -10 -3 4 0 11 8 16 24 15 33 11 15 -6z m228 -26 c-5 -11 -38 -2
-37 10 2 29 5 31 22 15 11 -10 17 -21 15 -25z m-260 -1 c3 -8 -1 -14 -8 -14
-7 0 -11 6 -8 14 3 7 6 13 8 13 2 0 5 -6 8 -13z m-550 -14 c-7 -2 -19 -2 -25
0 -7 3 -2 5 12 5 14 0 19 -2 13 -5z m618 -16 c-10 -9 -11 -8 -5 6 3 10 9 15
12 12 3 -3 0 -11 -7 -18z m-2305 1 c4 -7 4 -10 -1 -6 -4 4 -14 3 -22 -3 -8 -8
-13 -8 -13 -1 0 6 6 13 13 15 6 3 13 6 14 6 1 1 5 -5 9 -11z m472 1 c-2 -6 -8
-10 -13 -10 -5 0 -11 4 -13 10 -2 6 4 11 13 11 9 0 15 -5 13 -11z m1135 -24
c-3 -9 -8 -14 -10 -11 -3 3 -2 9 2 15 9 16 15 13 8 -4z m97 -69 c0 -9 -30 -14
-35 -6 -4 6 3 10 14 10 12 0 21 -2 21 -4z m-301 -45 c-13 -11 -26 -18 -28 -15
-2 2 7 12 20 23 13 11 26 18 28 15 2 -2 -7 -12 -20 -23z m341 -1 c0 -5 -5 -10
-11 -10 -5 0 -7 5 -4 10 3 6 8 10 11 10 2 0 4 -4 4 -10z m-306 -16 c4 -10 1
-14 -6 -12 -15 5 -23 28 -10 28 5 0 13 -7 16 -16z m376 -4 c12 -7 10 -9 -8 -7
-12 0 -22 5 -22 9 0 11 12 10 30 -2z m-36 -15 c10 -8 23 -12 29 -8 6 3 7 1 3
-5 -5 -9 -15 -8 -38 4 -22 11 -33 13 -41 5 -6 -6 -15 -11 -21 -11 -5 0 -1 7
10 15 24 18 34 18 58 0z m-484 -5 c13 -8 13 -10 -2 -10 -9 0 -20 5 -23 10 -8
13 5 13 25 0z m370 -23 c0 -5 -6 -7 -14 -4 -8 3 -17 3 -20 -1 -12 -11 -35 -10
-30 2 5 13 64 16 64 3z m100 7 c0 -2 -9 -8 -20 -14 -15 -8 -18 -8 -14 3 4 11
34 21 34 11z m-2266 -45 c-2 -4 2 -10 8 -12 8 -4 9 -6 2 -6 -6 -1 -17 5 -23
12 -8 10 -7 14 4 14 8 0 12 -4 9 -8z m3571 -19 c3 -5 1 -10 -4 -10 -6 0 -11 5
-11 10 0 6 2 10 4 10 3 0 8 -4 11 -10z m-3072 -26 c9 -10 -4 -34 -19 -34 -16
0 -16 2 -8 24 6 17 16 20 27 10z m3049 -21 c-20 -4 -21 -7 -10 -21 12 -15 11
-16 -4 -3 -26 20 -22 31 10 30 24 -2 24 -2 4 -6z m183 -62 c-3 -6 -11 -8 -17
-5 -6 4 -5 9 3 15 16 10 23 4 14 -10z m-3240 -51 c3 -5 1 -10 -4 -10 -6 0 -11
5 -11 10 0 6 2 10 4 10 3 0 8 -4 11 -10z m3309 1 c3 -5 -1 -11 -9 -14 -9 -4
-12 -1 -8 9 6 16 10 17 17 5z m84 -106 c-3 -3 -9 2 -12 12 -6 14 -5 15 5 6 7
-7 10 -15 7 -18z m-4270 -112 c-1 -5 4 -19 11 -33 8 -14 10 -22 6 -17 -5 4
-16 0 -26 -9 -16 -15 -17 -14 -15 10 3 21 1 24 -10 15 -9 -7 -14 -7 -14 -1 0
5 10 17 23 25 26 19 28 19 25 10z m4378 -108 c13 -20 14 -28 4 -40 -7 -8 -17
-15 -22 -15 -5 0 -2 7 7 16 9 9 13 19 10 22 -3 4 -10 0 -15 -8 -7 -11 -9 -6
-7 17 1 18 3 33 4 33 2 0 10 -11 19 -25z m81 -27 c-2 -7 5 -18 17 -25 12 -7
15 -12 8 -13 -7 0 -10 -4 -7 -10 3 -5 1 -10 -4 -10 -6 0 -11 7 -11 15 0 8 -5
15 -11 15 -5 0 -7 -5 -3 -12 4 -6 3 -8 -4 -5 -5 4 -9 15 -7 25 2 9 4 20 4 25
1 4 6 7 12 7 6 0 9 -6 6 -12z m17 -130 c7 -5 6 -8 -4 -8 -25 0 -41 20 -27 35
10 11 13 10 16 -3 2 -10 8 -20 15 -24z m-3914 12 c0 -5 -5 -10 -11 -10 -7 0
-9 -11 -6 -26 4 -23 2 -25 -19 -20 -19 5 -22 3 -18 -11 5 -13 1 -11 -10 4 -13
17 -14 27 -7 40 6 10 11 14 11 10 0 -5 10 -1 22 7 26 18 38 20 38 6z m1865
-90 c3 -6 -1 -7 -9 -4 -18 7 -21 14 -7 14 6 0 13 -4 16 -10z m-235 -96 c0 -7
5 -16 12 -20 8 -5 9 -2 5 10 -4 10 -3 15 3 11 15 -9 12 -25 -5 -31 -15 -6 -45
17 -45 34 0 5 7 9 15 9 8 0 15 -6 15 -13z m555 -64 c-6 -9 7 -14 27 -11 4 0 5
-6 2 -14 -7 -18 -26 -19 -41 -4 -13 13 -6 39 9 39 5 0 6 -4 3 -10z m-1925 -21
c0 11 3 11 15 1 8 -7 15 -9 15 -4 0 5 5 2 10 -6 8 -12 10 -12 10 -1 0 11 3 11
15 1 9 -8 12 -18 7 -29 -5 -9 -8 -28 -7 -43 1 -21 -7 -30 -39 -47 -36 -18 -42
-18 -57 -6 -8 8 -19 12 -22 8 -4 -3 -7 4 -7 16 0 12 -4 20 -10 16 -16 -10 11
58 33 83 16 17 23 19 29 10 6 -10 8 -10 8 1z m1854 -14 c-4 -8 -11 -12 -16 -9
-6 4 -5 10 3 15 19 12 19 11 13 -6z m-2481 -15 c16 -19 15 -21 -5 -40 -23 -21
-36 -24 -62 -14 -25 10 10 68 44 73 3 1 13 -8 23 -19z m2755 -55 c-3 -3 -9 2
-12 12 -6 14 -5 15 5 6 7 -7 10 -15 7 -18z m32 -5 c0 -5 -5 -10 -11 -10 -5 0
-7 5 -4 10 3 6 8 10 11 10 2 0 4 -4 4 -10z m-175 -28 c-3 -3 -11 0 -18 7 -9
10 -8 11 6 5 10 -3 15 -9 12 -12z m125 -2 c0 -5 -4 -10 -10 -10 -5 0 -10 5
-10 10 0 6 5 10 10 10 6 0 10 -4 10 -10z m45 1 c-3 -2 1 -11 7 -20 10 -12 7
-12 -8 2 -11 9 -24 14 -27 10 -4 -3 -7 -1 -7 5 0 6 9 10 20 9 10 -1 17 -3 15
-6z m-2947 -46 c-3 -3 -9 2 -12 12 -6 14 -5 15 5 6 7 -7 10 -15 7 -18z m3229
-21 c-7 -7 -37 7 -37 17 0 6 9 5 21 -1 11 -7 19 -14 16 -16z m133 -134 c0 -5
-5 -10 -11 -10 -5 0 -7 5 -4 10 3 6 8 10 11 10 2 0 4 -4 4 -10z m-135 -80 c3
-5 1 -10 -4 -10 -6 0 -11 5 -11 10 0 6 2 10 4 10 3 0 8 -4 11 -10z"/>
<path d="M1016 4343 c-6 -14 -5 -15 5 -6 7 7 10 15 7 18 -3 3 -9 -2 -12 -12z"/>
<path d="M1227 2743 c-11 -10 -8 -20 6 -20 8 0 14 6 14 14 0 14 -10 17 -20 6z"/>
<path d="M896 2402 c-4 -7 -4 -12 1 -13 4 0 -1 -4 -11 -8 -11 -4 -15 -10 -10
-13 5 -4 21 3 34 14 14 11 20 17 13 14 -6 -3 -13 -1 -15 6 -3 9 -6 9 -12 0z"/>
<path d="M544 1713 c3 -18 0 -23 -16 -23 -10 0 -16 -4 -13 -10 3 -5 2 -10 -4
-10 -5 0 -12 7 -14 15 -4 11 -5 10 -3 -2 1 -13 12 -18 39 -20 20 -2 37 -2 37
1 0 2 -7 19 -16 37 -9 20 -13 24 -10 12z"/>
<path d="M573 1711 c0 -11 5 -17 9 -15 11 7 10 34 -1 34 -6 0 -9 -9 -8 -19z"/>
<path d="M558 1643 c7 -3 16 -2 19 1 4 3 -2 6 -13 5 -11 0 -14 -3 -6 -6z"/>
<path d="M555 1591 c-3 -5 4 -13 16 -16 17 -6 19 -9 8 -16 -11 -7 -11 -9 2 -9
12 0 16 8 15 25 -1 25 -28 35 -41 16z"/>
<path d="M1218 1463 c7 -3 16 -2 19 1 4 3 -2 6 -13 5 -11 0 -14 -3 -6 -6z"/>
<path d="M2558 5113 c7 -3 16 -2 19 1 4 3 -2 6 -13 5 -11 0 -14 -3 -6 -6z"/>
<path d="M865 5069 c-4 -6 -5 -12 -2 -15 2 -3 7 2 10 11 7 17 1 20 -8 4z"/>
<path d="M2690 4950 c-12 -7 -10 -9 8 -7 12 0 22 5 22 9 0 11 -12 10 -30 -2z"/>
<path d="M2677 4904 c-26 -26 -27 -54 -1 -54 7 0 11 6 8 14 -3 8 0 24 6 36 9
17 17 20 38 16 20 -5 23 -4 12 4 -23 15 -35 12 -63 -16z"/>
<path d="M956 4728 c3 -5 10 -6 15 -3 13 9 11 12 -6 12 -8 0 -12 -4 -9 -9z"/>
<path d="M2626 4617 c3 -10 9 -15 12 -12 3 3 0 11 -7 18 -10 9 -11 8 -5 -6z"/>
<path d="M3328 4513 c7 -3 16 -2 19 1 4 3 -2 6 -13 5 -11 0 -14 -3 -6 -6z"/>
<path d="M1210 4506 c0 -2 8 -10 18 -17 15 -13 16 -12 3 4 -13 16 -21 21 -21
13z"/>
<path d="M4155 3993 c-9 -25 11 -38 24 -15 8 15 7 21 -3 25 -8 3 -17 -1 -21
-10z"/>
<path d="M4335 3980 c3 -5 8 -10 11 -10 2 0 4 5 4 10 0 6 -5 10 -11 10 -5 0
-7 -4 -4 -10z"/>
<path d="M4295 3949 c-4 -6 -4 -13 -1 -16 3 -4 6 -1 6 5 0 6 8 13 18 15 15 4
15 5 0 6 -9 0 -20 -4 -23 -10z"/>
<path d="M1935 3940 c-4 -6 -3 -10 2 -9 20 3 27 -2 13 -11 -8 -5 -12 -12 -9
-15 4 -3 11 1 18 8 9 11 8 17 -3 26 -10 8 -16 9 -21 1z"/>
<path d="M4250 3923 c0 -16 25 -23 41 -11 11 8 11 9 -2 5 -9 -3 -22 0 -28 6
-8 8 -11 8 -11 0z"/>
<path d="M4258 3868 c8 -9 11 -22 7 -28 -4 -7 2 -6 14 2 14 8 17 14 9 17 -7 2
-20 9 -28 15 -13 9 -13 9 -2 -6z"/>
<path d="M3386 3565 c-3 -8 -13 -15 -23 -15 -15 0 -16 -2 -3 -10 9 -5 19 -5
27 2 9 7 13 7 13 -1 0 -6 -3 -12 -7 -12 -41 -7 -55 -4 -68 15 l-15 20 0 -22
c0 -21 -11 -28 -35 -22 -31 8 -55 7 -55 -2 0 -5 -10 -6 -22 -3 -14 4 -18 3
-11 -2 8 -6 3 -12 -17 -21 -19 -9 -27 -18 -23 -28 3 -8 0 -21 -6 -28 -13 -16
-11 -117 2 -109 5 3 7 -1 6 -8 -1 -8 1 -26 5 -41 7 -24 10 -25 22 -13 8 7 14
18 14 24 0 6 5 11 11 11 5 0 7 5 4 10 -4 6 -3 10 2 9 19 -3 53 14 53 27 0 8 9
14 19 14 11 0 23 4 26 10 3 5 23 8 45 6 32 -3 38 -1 34 13 -5 13 -3 13 6 -2
14 -22 33 -12 22 11 -12 24 -9 41 6 51 10 6 8 10 -9 14 l-23 6 22 24 c12 13
22 27 22 33 0 5 -5 2 -11 -6 -9 -12 -10 -12 -7 -1 6 20 28 26 28 7 0 -8 5 -18
12 -22 7 -5 9 0 6 14 -5 19 -3 20 21 11 14 -5 32 -17 39 -26 11 -15 12 -15 12
-1 0 9 3 25 6 35 4 14 4 15 -4 4 -8 -11 -11 -9 -17 8 -4 15 -11 19 -18 13 -19
-14 -60 -12 -83 3 -19 12 -23 12 -28 0z m-52 -51 c3 -8 2 -12 -4 -9 -6 3 -10
10 -10 16 0 14 7 11 14 -7z m61 -14 c3 -5 -1 -10 -10 -10 -9 0 -13 5 -10 10 3
6 8 10 10 10 2 0 7 -4 10 -10z m-248 -122 c-3 -8 -6 -5 -6 6 -1 11 2 17 5 13
3 -3 4 -12 1 -19z"/>
<path d="M3543 3563 c9 -9 20 -13 24 -9 4 4 1 11 -7 16 -25 16 -35 11 -17 -7z"/>
<path d="M3990 3570 c-9 -6 -10 -10 -3 -10 6 0 15 5 18 10 8 12 4 12 -15 0z"/>
<path d="M3876 3545 c4 -8 8 -15 10 -15 2 0 4 7 4 15 0 8 -4 15 -10 15 -5 0
-7 -7 -4 -15z"/>
<path d="M2780 3431 c0 -8 -6 -11 -16 -7 -8 3 -12 2 -9 -4 3 -6 1 -10 -4 -10
-16 0 -14 -27 2 -33 14 -5 44 49 33 60 -3 4 -6 1 -6 -6z"/>
<path d="M2810 3321 c0 -6 5 -13 10 -16 6 -3 10 1 10 9 0 9 -4 16 -10 16 -5 0
-10 -4 -10 -9z"/>
<path d="M4066 3094 c-8 -21 1 -34 22 -34 15 1 15 2 -1 14 -13 10 -14 15 -6
18 9 3 10 6 2 11 -6 4 -14 0 -17 -9z"/>
<path d="M4130 2839 c0 -5 5 -7 10 -4 6 3 10 8 10 11 0 2 -4 4 -10 4 -5 0 -10
-5 -10 -11z"/>
<path d="M4100 2820 c0 -5 5 -10 11 -10 5 0 7 5 4 10 -3 6 -8 10 -11 10 -2 0
-4 -4 -4 -10z"/>
<path d="M3960 2779 c11 -19 70 -44 70 -28 0 5 -9 9 -20 9 -17 0 -19 3 -11 18
8 16 6 18 -19 18 -24 0 -27 -2 -20 -17z"/>
<path d="M3917 2770 c-6 -22 0 -25 23 -10 11 7 11 10 2 10 -7 0 -10 5 -7 10 3
6 2 10 -3 10 -5 0 -12 -9 -15 -20z"/>
<path d="M3670 2740 c0 -5 5 -10 11 -10 5 0 7 5 4 10 -3 6 -8 10 -11 10 -2 0
-4 -4 -4 -10z"/>
<path d="M2636 2727 c3 -10 9 -15 12 -12 3 3 0 11 -7 18 -10 9 -11 8 -5 -6z"/>
<path d="M3741 2704 c0 -11 3 -14 6 -6 3 7 2 16 -1 19 -3 4 -6 -2 -5 -13z"/>
<path d="M4188 2683 c7 -3 16 -2 19 1 4 3 -2 6 -13 5 -11 0 -14 -3 -6 -6z"/>
<path d="M3726 2624 c-11 -8 -16 -14 -10 -14 13 0 39 18 34 24 -3 2 -14 -2
-24 -10z"/>
<path d="M4051 2424 c0 -11 3 -14 6 -6 3 7 2 16 -1 19 -3 4 -6 -2 -5 -13z"/>
<path d="M3517 2387 c-3 -7 3 -13 14 -13 13 0 15 3 7 13 -6 7 -12 13 -13 13
-2 0 -5 -6 -8 -13z"/>
<path d="M3763 2175 c-3 -9 -3 -19 1 -22 3 -4 6 2 6 13 0 16 2 17 10 4 14 -21
12 -30 -5 -30 -8 0 -15 -4 -15 -10 0 -6 10 -5 25 2 28 13 29 16 11 41 -16 21
-25 22 -33 2z"/>
<path d="M3685 2160 c-3 -5 -2 -10 4 -10 5 0 13 5 16 10 3 6 2 10 -4 10 -5 0
-13 -4 -16 -10z"/>
<path d="M3730 2149 c0 -5 -4 -7 -10 -4 -6 3 -7 -1 -4 -10 4 -9 7 -15 8 -13 1
2 8 11 15 21 9 11 10 17 2 17 -6 0 -11 -5 -11 -11z"/>
<path d="M3874 2149 c-3 -6 -2 -15 3 -20 5 -5 9 -1 10 11 2 22 -2 25 -13 9z"/>
<path d="M3935 2100 c3 -5 8 -10 11 -10 2 0 4 5 4 10 0 6 -5 10 -11 10 -5 0
-7 -4 -4 -10z"/>
<path d="M3405 1690 c3 -5 8 -10 11 -10 2 0 4 5 4 10 0 6 -5 10 -11 10 -5 0
-7 -4 -4 -10z"/>
<path d="M3206 1668 c3 -4 16 -7 29 -6 13 1 22 5 19 8 -9 8 -53 7 -48 -2z"/>
<path d="M3315 1670 c-3 -5 -2 -10 4 -10 5 0 13 5 16 10 3 6 2 10 -4 10 -5 0
-13 -4 -16 -10z"/>
<path d="M4020 1649 c0 -5 5 -7 10 -4 6 3 10 8 10 11 0 2 -4 4 -10 4 -5 0 -10
-5 -10 -11z"/>
<path d="M3326 1643 c-11 -11 -6 -23 9 -23 8 0 15 4 15 9 0 13 -16 22 -24 14z"/>
<path d="M3810 1588 c0 -19 2 -20 10 -8 13 19 13 30 0 30 -5 0 -10 -10 -10
-22z"/>
<path d="M3143 1585 c-20 -22 -15 -30 5 -12 10 10 22 14 27 10 4 -5 5 -2 1 5
-9 15 -18 15 -33 -3z"/>
<path d="M3237 1579 c7 -7 15 -10 18 -7 3 3 -2 9 -12 12 -14 6 -15 5 -6 -5z"/>
<path d="M3250 1526 c0 -2 7 -9 15 -16 9 -7 15 -8 15 -2 0 5 -7 12 -15 16 -8
3 -15 4 -15 2z"/>
<path d="M3423 1446 c17 -17 24 -42 9 -32 -4 2 -14 0 -22 -5 -12 -8 -12 -12
-2 -16 6 -2 10 -9 7 -13 -3 -5 0 -12 6 -16 7 -4 9 -3 6 3 -4 6 0 19 7 29 13
17 14 17 9 -9 -4 -20 -1 -27 11 -27 19 0 21 16 4 23 -20 8 11 27 31 19 13 -5
14 -3 4 10 -7 8 -10 18 -6 22 4 4 0 4 -10 0 -9 -3 -17 -11 -17 -18 0 -6 -6 0
-13 13 -6 14 -19 27 -27 29 -11 4 -10 1 3 -12z"/>
<path d="M3500 1426 c0 -2 7 -7 16 -10 8 -3 12 -2 9 4 -6 10 -25 14 -25 6z"/>
<path d="M2886 1405 c-3 -9 0 -15 9 -15 9 0 12 6 9 15 -4 8 -7 15 -9 15 -2 0
-5 -7 -9 -15z"/>
<path d="M3006 1387 c-16 -12 -16 -13 2 -13 10 0 19 6 19 13 0 7 -1 13 -2 13
-1 0 -9 -6 -19 -13z"/>
<path d="M3130 1378 c-12 -8 -12 -9 2 -4 10 3 22 -2 27 -12 6 -9 11 -12 11 -6
0 20 -24 34 -40 22z"/>
<path d="M2955 1370 c-3 -6 1 -7 9 -4 18 7 21 14 7 14 -6 0 -13 -4 -16 -10z"/>
<path d="M3465 1350 c-3 -5 -2 -10 4 -10 5 0 13 5 16 10 3 6 2 10 -4 10 -5 0
-13 -4 -16 -10z"/>
<path d="M2565 1330 c-3 -5 1 -10 10 -10 9 0 13 5 10 10 -3 6 -8 10 -10 10 -2
0 -7 -4 -10 -10z"/>
<path d="M4497 1169 c7 -7 15 -10 18 -7 3 3 -2 9 -12 12 -14 6 -15 5 -6 -5z"/>
<path d="M4580 1100 c-9 -6 -10 -10 -3 -10 6 0 15 5 18 10 8 12 4 12 -15 0z"/>
<path d="M4856 1015 c4 -8 8 -15 10 -15 2 0 4 7 4 15 0 8 -4 15 -10 15 -5 0
-7 -7 -4 -15z"/>
<path d="M3096 605 c4 -8 10 -15 16 -15 5 0 6 -9 3 -20 -4 -14 -2 -20 8 -20 8
0 17 9 20 20 3 11 1 20 -4 20 -5 0 -9 8 -9 18 0 14 -2 15 -10 2 -6 -10 -10
-11 -10 -2 0 6 -4 12 -10 12 -5 0 -7 -7 -4 -15z"/>
<path d="M3200 589 c0 -5 5 -7 10 -4 6 3 10 8 10 11 0 2 -4 4 -10 4 -5 0 -10
-5 -10 -11z"/>
<path d="M3291 583 c13 -22 20 -25 61 -28 9 0 26 -9 37 -19 12 -11 21 -17 22
-15 0 2 2 12 4 22 2 9 -1 15 -6 11 -5 -3 -9 0 -9 7 0 7 -11 10 -30 7 -16 -3
-30 -1 -30 4 0 5 -5 6 -11 3 -5 -4 -20 1 -31 12 -21 18 -21 18 -7 -4z"/>
<path d="M3138 548 c-9 -9 -14 -19 -10 -22 10 -11 22 -6 22 9 0 10 10 15 30
15 17 0 30 4 30 10 0 15 -53 7 -72 -12z"/>
<path d="M3278 550 c20 -20 25 -19 17 2 -3 8 -12 15 -20 15 -12 0 -11 -4 3
-17z"/>
<path d="M3340 528 c0 -9 7 -19 16 -22 15 -6 15 -4 3 11 -7 10 -15 20 -16 22
-2 2 -3 -3 -3 -11z"/>
<path d="M3495 470 c3 -5 12 -7 20 -3 21 7 19 13 -6 13 -11 0 -18 -4 -14 -10z"/>
<path d="M3411 454 c0 -11 3 -14 6 -6 3 7 2 16 -1 19 -3 4 -6 -2 -5 -13z"/>
<path d="M3532 446 c7 -8 15 -12 17 -11 5 6 -10 25 -20 25 -5 0 -4 -6 3 -14z"/>
<path d="M3441 434 c0 -11 3 -14 6 -6 3 7 2 16 -1 19 -3 4 -6 -2 -5 -13z"/>
<path d="M5100 440 c0 -5 5 -10 10 -10 6 0 10 5 10 10 0 6 -4 10 -10 10 -5 0
-10 -4 -10 -10z"/>
<path d="M3365 420 c-3 -5 -1 -10 4 -10 6 0 11 5 11 10 0 6 -2 10 -4 10 -3 0
-8 -4 -11 -10z"/>
<path d="M3400 412 c8 -5 26 -13 40 -16 17 -5 20 -4 10 2 -8 5 -26 13 -40 16
-17 5 -20 4 -10 -2z"/>
<path d="M3613 360 c1 -21 10 -18 13 5 1 8 -2 15 -6 15 -5 0 -8 -9 -7 -20z"/>
</g>
</svg>
